<?xml version="1.0" encoding="UTF-8" standalone="no"?>
<!-- Created with Inkscape (http://www.inkscape.org/) -->

<svg
   version="1.1"
   id="svg32"
   width="221.91362"
   height="175.48718"
   viewBox="0 0 221.91362 175.48718"
   sodipodi:docname="Team Logo_dog.svg"
   inkscape:version="1.2.2 (b0a84865, 2022-12-01)"
   xmlns:inkscape="http://www.inkscape.org/namespaces/inkscape"
   xmlns:sodipodi="http://sodipodi.sourceforge.net/DTD/sodipodi-0.dtd"
   xmlns="http://www.w3.org/2000/svg"
   xmlns:svg="http://www.w3.org/2000/svg">
  <defs
     id="defs36" />
  <sodipodi:namedview
     id="namedview34"
     pagecolor="#ffffff"
     bordercolor="#000000"
     borderopacity="0.25"
     inkscape:showpageshadow="2"
     inkscape:pageopacity="0.0"
     inkscape:pagecheckerboard="0"
     inkscape:deskcolor="#d1d1d1"
     showgrid="false"
     inkscape:zoom="1"
     inkscape:cx="177.5"
     inkscape:cy="281"
     inkscape:window-x="2053"
     inkscape:window-y="25"
     inkscape:window-maximized="0"
     inkscape:current-layer="g38" />
  <g
     inkscape:groupmode="layer"
     inkscape:label="Image"
     id="g38"
     transform="translate(-272.65715,-1.0269813)">
    <g
       id="g5480"
       transform="translate(-247.74809)"
       style="fill:#000000;fill-opacity:1">
      <path
         style="fill:#f8f8f8;fill-opacity:1;stroke-width:0;stroke-dasharray:none"
         d="m 596.40524,176.1056 c -2.56667,-0.33114 -5.23667,-1.1593 -5.93334,-1.84036 -0.69666,-0.68104 -4.41125,-1.23826 -8.25464,-1.23826 -3.84339,0 -7.3588,-0.6 -7.81202,-1.33334 -0.45323,-0.73333 -5.17587,-1.58619 -6.47703,-1.58619 -2.60805,0 0.32877,-1.23874 0.62477,-11.08047 0.21347,-7.09759 0.20707,-7.23883 -0.94676,-20.87794 -0.49411,-5.84073 -0.068,-11.54415 1.24557,-16.67148 1.36763,-5.33837 1.86488,-12.62242 1.57846,-23.122056 -0.49592,-18.17957 -1.42389,-22.661853 -4.69168,-22.661853 -2.97294,0 -4.07201,4.323226 -2.87409,11.305366 0.50063,2.91795 0.33595,7.780597 -0.36595,10.805877 -1.70007,7.327546 -9.33971,11.800516 -17.83467,10.442116 -7.0323,-1.12451 -12.81072,-6.17213 -11.77766,-10.288136 0.40778,-1.62473 0.17557,-3.84906 -0.51602,-4.94297 -1.03443,-1.63617 -1.26825,-1.51597 -1.3184,0.67775 -0.0551,2.41058 -0.1885,2.44791 -1.38902,0.38871 -0.73042,-1.25288 -2.18212,-1.95022 -3.226,-1.54965 -2.68838,1.03163 -6.03152,-7.644653 -6.03152,-15.65332 0,-7.057811 0.9611,-8.736704 10.66666,-18.632912 12.22242,-12.4625 12.5572,-12.94155 10.64991,-15.23969 -1.22779,-1.4794 -2.9053,-1.84274 -5.68702,-1.23178 -9.14232,2.00799 -0.74177,-4.52728 17.41976,-13.55183 3.21748,-1.59878 5.58556,-7.98291 4.46522,-12.03783 -1.54317,-5.58526 -0.30608,-15.1583707 1.95885,-15.1583707 1.02297,0 1.85995,0.7731402 1.85995,1.7180802 0,0.94494 1.2,4.07181 2.66667,6.9485902 1.46666,2.8767803 2.66666,6.0036503 2.66666,6.9485903 0,0.94494 1.15827,1.71808 2.57394,1.71808 1.62003,0 2.77447,1.11179 3.11507,3 0.29763,1.65 0.56208,0 0.58766,-3.66667 0.0772,-11.0563805 0.99487,-16.0000005 2.97019,-16.0000005 1.00774,0 2.00321,1.16471 2.21214,2.58824 0.85718,5.8403205 1.99327,8.5333405 5.51088,13.0631205 2.03323,2.61829 4.72996,6.46785 5.99272,8.55458 1.26276,2.08673 4.56276,6.83566 7.33333,10.55317 2.77057,3.71751 7.73741,10.38134 11.03741,14.80851 6.77065,9.08328 18.67329,19.898087 24.66666,22.412273 5.52249,2.31665 28.21161,3.626698 43.81543,2.52986 11.11852,-0.781555 13.17869,-1.29692 14.41438,-3.605842 2.14687,-4.011438 1.43138,-17.175561 -1.57309,-28.942871 -2.82647,-11.07018 -3.451,-20.6461 -1.42807,-21.89634 1.3161,-0.8134 13.43802,22.12184 13.43802,25.42535 0,1.08664 0.97893,3.86876 2.17541,6.18248 1.28459,2.48413 2.35689,8.40391 2.61863,14.456361 0.24377,5.637271 0.61484,11.005852 0.8246,11.930179 0.20974,0.924328 4.29414,5.745141 9.07644,10.71292 5.81945,6.045172 10.22902,12.261618 13.33333,18.796828 2.55104,5.37048 5.08825,9.96451 5.63825,10.20895 0.55,0.24445 1,1.55904 1,2.92131 0,1.36228 0.6,2.84769 1.33334,3.30091 0.73333,0.45323 1.33333,2.51518 1.33333,4.5821 0,2.06693 0.9074,4.51113 2.01644,5.43154 1.33712,1.10972 1.58613,2.192 0.73915,3.21255 -1.26435,1.52344 -1.73891,7.95855 -1.4235,19.30241 0.25243,9.07835 -1.97265,13.07346 -7.77344,13.95716 -2.6906,0.4099 -7.14036,1.13374 -9.88837,1.60854 -6.88893,1.19028 -11.08685,-0.1292 -15.23992,-4.79036 -1.9458,-2.18383 -4.29821,-3.9706 -5.22757,-3.9706 -0.92936,0 -2.08111,-1.23303 -2.55942,-2.74007 -1.06701,-3.36185 -3.829,-2.71547 -4.38284,1.02573 -0.27446,1.854 -1.7334,3.00891 -4.5,3.56223 -6.08481,1.21696 -11.49552,0.99293 -12.4272,-0.51456 -0.45322,-0.73333 -1.91517,-1.33333 -3.24876,-1.33333 -1.3336,0 -3.21661,-0.95418 -4.18449,-2.1204 -1.56405,-1.88456 -1.92377,-1.89614 -3.2342,-0.104 -1.06851,1.46128 -4.94197,2.19496 -14.07015,2.66508 -6.92765,0.35678 -12.89573,0.7728 -13.2624,0.92448 -0.36666,0.15168 -1.26666,0.42036 -2,0.59706 -4.21215,1.01496 -7.33333,2.48932 -7.33333,3.46407 0,3.7112 -21.95997,7.29173 -34.66666,5.65235 z m 6.70484,-10.51237 c 2.08314,-5.47908 7.40391,-9.96523 5.81113,-4.89959 -0.69873,2.22223 -0.64212,2.22223 1.18884,0 2.50767,-3.04354 4.01342,-2.97986 3.02702,0.128 -0.69189,2.17995 -0.0165,2.44672 5.90719,2.33334 3.67862,-0.0704 6.68973,-0.32088 6.69136,-0.5566 0.002,-0.23571 -0.89705,-1.32858 -1.99705,-2.42858 -1.1,-1.1 -1.98176,-3.00713 -1.95946,-4.23809 0.0369,-2.03592 0.16332,-2.02732 1.39959,0.0952 0.74747,1.28333 2.77306,2.33333 4.5013,2.33333 2.55153,0 3.00238,0.53488 2.39822,2.84518 -1.25958,4.81664 2.79727,2.15833 4.20685,-2.7566 0.88813,-3.09672 0.76996,-5.14274 -0.40577,-7.02538 -0.91236,-1.46092 -1.27226,-3.04278 -0.79978,-3.51526 0.47248,-0.47248 1.46249,0.21922 2.20001,1.5371 0.95104,1.69942 1.81472,2.00298 2.97025,1.04398 1.12146,-0.93072 2.76911,-0.76083 5.28629,0.54509 3.40886,1.76855 3.733,1.69695 4.77694,-1.05508 1.1077,-2.92011 1.13852,-2.91229 2.8201,0.71431 0.9351,2.01666 2.50386,3.66666 3.48615,3.66666 0.98228,0 1.78597,0.66998 1.78597,1.48884 0,0.93606 1.11387,1.13678 3,0.54063 7.73911,-2.44612 16.75351,-1.65657 23.98191,2.10048 3.43051,1.78307 3.95863,1.50005 2.97632,-1.59491 -0.76792,-2.41946 -0.48679,-2.6709 2.07661,-1.85732 3.46902,1.10103 5.24778,-0.98208 5.27808,-6.18113 0.0272,-4.67477 3.06298,-7.2568 5.32602,-4.53001 0.91266,1.0997 1.27634,2.99768 0.80818,4.2177 -0.5198,1.35458 0.17911,3.17815 1.79508,4.68366 3.77019,3.51245 5.42447,3.05876 5.42447,-1.4877 0,-2.64258 0.92189,-4.44646 2.78087,-5.44136 3.5232,-1.88556 4.92145,-0.57009 2.87578,2.70554 -1.17089,1.87492 -1.20074,3.5988 -0.11613,6.70997 1.05256,3.01936 1.05529,5.07403 0.009,7.3686 -1.92857,4.23276 0.0233,5.24407 5.07723,2.6306 2.78784,-1.44165 4.03916,-1.60475 4.03916,-0.52647 0,0.85926 1.61793,-0.17533 3.5954,-2.29909 2.64416,-2.83975 3.49904,-5.00784 3.23117,-8.19469 -0.26985,-3.21058 0.18046,-4.33334 1.73794,-4.33334 1.15618,0 2.10216,-0.78 2.10216,-1.73333 0,-4.60991 -7.55171,-6.68663 -10.66667,-2.93333 -2.57045,3.09721 -4,2.38244 -4,-2 0,-5.42016 3.9054,-9.27612 7.68632,-7.58903 1.5582,0.69529 3.81107,0.88889 5.00635,0.43021 1.9378,-0.7436 1.87356,-1.21493 -0.59306,-4.3507 -1.52102,-1.93416 -2.76585,-4.49146 -2.76585,-5.68283 0,-1.19137 -1.2,-2.91554 -2.66667,-3.83149 -3.56706,-2.22767 -3.45676,-4.7399 0.15775,-3.5927 2.04893,0.65031 2.65057,0.40041 2.19127,-0.91014 -0.3737,-1.06624 -2.35078,-1.72602 -4.82443,-1.60999 -3.5648,0.16723 -4.19092,-0.27104 -4.19092,-2.93375 0,-1.72169 0.95817,-3.66657 2.12928,-4.32195 1.75572,-0.98255 1.25838,-1.70545 -2.83471,-4.12043 -2.7302,-1.61086 -5.33837,-2.52231 -5.79595,-2.02544 -0.45757,0.49686 -0.082,1.17124 0.83471,1.49862 2.26173,0.80776 2.12308,4.37302 -0.17008,4.37302 -1.0102,0 -2.47247,0.76601 -3.24948,1.70225 -0.777,0.93623 -2.95047,1.82951 -4.82992,1.98506 -2.61668,0.21656 -3.41719,-0.33837 -3.41719,-2.36892 0,-1.45845 0.54383,-2.65173 1.20851,-2.65173 0.66468,0 0.87485,-1.27588 0.46707,-2.83529 -0.47932,-1.83291 0.0361,-3.27048 1.45816,-4.06625 3.31108,-1.852976 2.6423,-3.479956 -1.13374,-2.758116 -2.44369,0.46714 -3.33333,0.0619 -3.33333,-1.51823 0,-1.18549 -0.89292,-2.15544 -1.98428,-2.15544 -1.23609,0 -1.86452,-1.07274 -1.66667,-2.84503 0.23612,-2.11503 -1.14509,-3.669393 -5.38293,-6.057755 -5.78219,-3.258731 -8.29945,-3.163246 -8.29945,0.314812 0,2.537886 -3.50168,2.47641 -4.48218,-0.07869 -0.75629,-1.970864 -4.85116,-2.876549 -4.85116,-1.072958 0,0.509873 1.60626,2.603614 3.56947,4.652758 1.9632,2.049143 3.24073,4.054443 2.83896,4.456213 -1.17135,1.17135 -7.74176,-2.30328 -7.74176,-4.094078 0,-1.245464 -1.27916,-1.189321 -5.42191,0.237972 -6.0536,2.085636 -7.91142,1.555246 -7.91142,-2.258596 0,-3.288187 -2.41498,-3.252496 -6.66667,0.09852 -2.82452,2.226183 -3.02805,2.829113 -1.33333,3.949932 1.1,0.7275 3.35,1.33192 5,1.34315 2.1043,0.0143 3,0.81659 3,2.68708 0,3.37821 -4.64276,3.61355 -6.57602,0.33333 -0.9322,-1.58169 -1.70518,-1.85825 -2.39958,-0.85853 -1.34367,1.93444 -17.21823,3.70229 -18.25027,2.03242 -1.4934,-2.41637 0.91601,-5.64525 4.7908,-6.420205 6.03983,-1.207965 4.17209,-4.570662 -3.76467,-6.77794 -6.51809,-1.812736 -7.00672,-1.769277 -9.63275,0.856747 -2.92128,2.921279 -9.05111,5.061693 -10.46028,3.652521 -0.45939,-0.459386 1.06856,-2.534964 3.39543,-4.612394 3.84449,-3.432359 5.70911,-8.17903 3.23067,-8.224154 -0.55,-0.01 -2.35,-0.379992 -4,-0.822174 -2.5516,-0.683799 -3,-0.282504 -3,2.684878 0,1.918863 -0.53099,3.488842 -1.17998,3.488842 -1.7266,0 -6.11074,-7.121446 -4.69117,-7.62018 3.26906,-1.148511 4.55003,-2.796559 3.7646,-4.843363 -0.47495,-1.237689 -1.82352,-2.08972 -2.99682,-1.8934 -1.25596,0.210147 -2.32236,-0.739748 -2.59302,-2.30972 -1.02744,-5.95958 -1.85306,-6.78571 -3.3313,-3.33334 -1.35283,3.15951 -1.47176,3.02045 -2.28057,-2.66666 -0.89198,-6.27192 -5.72097,-17.90933 -8.02156,-19.33117 -0.73526,-0.45441 -1.33684,-1.91733 -1.33684,-3.25093 0,-2.64047 -3.08944,-5.88402 -4.37754,-4.59592 -0.43937,0.43937 -0.0992,1.91918 0.75596,3.28849 2.03723,3.26212 -0.73133,6.73662 -3.31176,4.15619 -2.43889,-2.43889 -6.1392,-1.91199 -7.75332,1.10401 -2.01238,3.76018 -3.98001,2.03372 -3.98001,-3.49219 0,-2.54694 -0.8805,-6.73814 -1.95667,-9.31377 -1.93503,-4.63118 -1.99401,-4.6585 -5.33333,-2.47049 -3.71525,2.43432 -4.25941,4.01817 -1.71,4.97714 1.7251,0.6489 -4.98506,7.87013 -8.60333,9.25859 -1.11031,0.42607 -1.9956,3.04201 -2.19962,6.49967 -0.18779,3.18264 -1.1622,6.69796 -2.16536,7.81183 -2.51073,2.78781 -3.82141,8.69198 -2.8175,12.69188 1.24411,4.956923 3.85663,4.208737 2.75871,-0.79005 -0.77669,-3.53624 -0.55445,-4.05672 1.56073,-3.65517 1.85416,0.352 2.56814,1.87198 2.87637,6.123389 0.43228,5.962574 -0.54223,6.748588 -5.24594,4.231236 -2.30531,-1.233763 -2.86684,-0.877628 -4.20467,2.666666 -1.77122,4.692504 -4.3703,5.611974 -3.0828,1.090595 2.26347,-7.948744 2.29628,-9.863346 0.19886,-11.604046 -2.78558,-2.31183 -8.75694,0.13956 -8.70952,3.575461 0.0872,6.315633 3.04726,14.571506 6.10553,17.028585 2.49668,2.005889 3.37364,4.06228 3.53912,8.298876 0.12913,3.30611 0.95814,5.91546 2.00729,6.31806 0.98301,0.37721 1.46288,0.16093 1.06638,-0.48063 -0.39651,-0.64156 0.47233,-1.47851 1.93075,-1.8599 1.91662,-0.5012 2.65167,-1.82244 2.65167,-4.76631 0,-2.437205 1.13919,-5.134197 2.83661,-6.715588 1.95922,-1.825288 2.63503,-3.697221 2.1849,-6.051941 -0.35845,-1.875079 -0.2049,-3.409234 0.34121,-3.409234 1.86289,0 12.15453,-5.966824 9.18518,-15.890498 -1.73861,-5.810467 -3.5447,0.340962 -1.96326,-2.829178 2.16177,-4.33338 -3.58303,-11.946993 -6.66333,-11.946993 -2.57945,0 -2.42237,-1.32566 0.41202,-3.47727 3.37687,-2.56341 5.84954,-2.19752 10.03409,1.48478 2.89058,2.54363 3.51501,3.99666 2.8523,6.63713 -1.04493,4.16333 0.61199,5.39836 -0.83668,2.978596 -1.66554,-2.782025 4.00084,1.487302 -7.69935,9.710104 -8.00147,5.623371 -0.0422,9.901448 2.08237,6.147635 1.55255,-2.743105 2.48108,-3.365785 3.22474,-2.162514 0.57442,0.929418 1.62719,1.329658 2.33951,0.889423 2.45682,-1.518404 8.31508,2.322473 8.32595,5.458785 0.006,1.65 0.54621,3 1.20109,3 1.68501,0 2.80931,-3.473358 2.80931,-8.678942 0,-3.242727 0.96938,-5.223357 3.54993,-7.253217 l 3.54994,-2.79238 3.11673,2.92802 c 3.10525,2.91724 4.31881,9.129853 1.7834,9.129853 -0.73333,0 -1.33333,-1.2 -1.33333,-2.666667 0,-3.076826 -0.0451,-3.090456 -4.5544,-1.376016 -2.31763,0.88116 -3.13897,1.956981 -2.58875,3.390836 0.44326,1.155104 1.0818,1.824312 1.41898,1.487128 0.6295,-0.629503 5.72417,3.967237 5.72417,5.164719 0,0.366666 -0.86459,0.666666 -1.92131,0.666666 -2.43954,0 -2.95649,0.882583 -4.10603,7.010155 -0.76673,4.087013 -0.54739,4.989845 1.21229,4.989845 1.38334,0 2.14838,1.148166 2.14838,3.224284 0,1.773359 0.3642,4.173349 0.80932,5.333329 0.44513,1.15998 0.14513,2.10905 -0.66666,2.10905 -0.8118,0 -1.47599,-1.2 -1.47599,-2.66667 0,-3.29636 -1.58461,-3.40563 -4.39256,-0.30288 -2.95654,3.26694 -0.92509,5.967046 4.7485,6.311506 6.07918,0.36908 7.64406,1.47526 7.64406,5.4034 0,3.55789 -1.91333,4.31745 -3.60041,1.4293 -1.49758,-2.56374 -6.6182,-3.99965 -6.63527,-1.86065 -0.007,0.9273 -1.32292,4.38082 -2.92338,7.67449 -1.70949,3.51805 -2.34566,6.17659 -1.5421,6.44445 1.75981,0.5866 1.78388,6.48587 0.0309,7.56928 -0.80637,0.49836 -0.87787,1.72016 -0.18017,3.07869 0.63622,1.23883 0.84027,3.15241 0.45344,4.25241 -0.61765,1.75638 -0.4174,1.76391 1.64391,0.0619 1.68822,-1.394 2.15221,-3.13992 1.65261,-6.2186 -0.89593,-5.52097 2.03946,-10.11121 4.67739,-7.31431 1.25404,1.3296 1.27971,1.59313 0.0898,0.92131 -0.91667,-0.51755 -1.66667,-0.35557 -1.66667,0.35993 0,0.7155 0.75,1.57591 1.66666,1.91203 1.33334,0.48888 1.33334,0.96444 0,2.37777 -0.91666,0.97167 -1.66666,2.75906 -1.66666,3.97198 0,1.2129 -1.47135,3.7929 -3.26967,5.73333 -1.79832,1.94041 -2.84832,3.53721 -2.33333,3.54844 0.51498,0.0112 0.0363,0.60204 -1.06367,1.31292 -1.5458,0.99897 -1.58868,1.29713 -0.18879,1.31292 1.24062,0.014 1.55971,1.02247 1.01289,3.20119 -0.53112,2.11614 -0.0497,3.78968 1.43843,5 1.93868,1.5768 2.12774,1.52788 1.41871,-0.3671 -0.60585,-1.6192 0.1491,-2.37974 2.9104,-2.93201 2.39375,-0.47875 4.0102,-1.82311 4.51552,-3.75545 0.43289,-1.65536 1.18499,-2.61184 1.67134,-2.1255 0.48635,0.48635 0.58654,1.66015 0.22264,2.60844 -0.36389,0.9483 -0.58801,2.08196 -0.49805,2.51926 0.09,0.43728 -0.69744,1.83253 -1.74979,3.10053 -1.05236,1.26801 -2.04261,4.81023 -2.20058,7.8716 -0.15796,3.06136 -0.007,4.22993 0.33542,2.59683 0.61929,-2.95344 0.63756,-2.95538 3.42011,-0.36303 1.98421,1.84857 3.79964,2.35679 6.24462,1.74812 3.06049,-0.76188 3.24732,-0.61555 1.66568,1.30463 -1.80701,2.19378 -1.12451,4.94624 1.22647,4.94624 0.70821,0 1.87513,-1.54519 2.59316,-3.43375 z m -9.37151,-16.29959 c 0,-0.58666 0.55383,-1.63666 1.23074,-2.33333 0.6769,-0.69667 1.46421,-3.06667 1.74958,-5.26667 l 0.51885,-4 1.40322,3.33334 c 0.96458,2.29137 0.97596,4.27109 0.0364,6.33333 -1.28658,2.82387 -4.93879,4.25356 -4.93879,1.93333 z m 60.72361,-0.17453 c -0.91077,-1.47364 1.19253,-3.06487 2.42375,-1.83367 1.26772,1.26772 1.03145,3.07487 -0.402,3.07487 -0.69006,0 -1.59984,-0.55855 -2.02175,-1.2412 z m 6.74804,-2.21245 c -0.9068,-2.36312 0.0249,-4.54635 1.94037,-4.54635 0.69006,0 1.25464,1.5 1.25464,3.33333 0,3.72978 -1.94576,4.46851 -3.19501,1.21302 z m -56.76053,-7.04792 c -1.87274,-6.95483 -0.77625,-8.6484 2.68376,-4.14518 3.07439,4.00135 3.08854,4.14262 0.73721,7.35826 -1.7433,2.3841 -1.97152,2.16976 -3.42097,-3.21308 z m 64.71745,3.073 c -3.38943,-3.38943 -2.57803,-5.90476 1.90476,-5.90476 2.2,0 4.00819,0.45 4.0182,1 0.0107,0.55 0.38,2.35 0.82219,4 0.6419,2.39528 0.25428,3 -1.92298,3 -1.49981,0 -3.6698,-0.94286 -4.82217,-2.09524 z m -84.01839,-4.44708 c -0.41095,-0.66495 0.45364,-0.89496 1.92131,-0.51116 3.11332,0.81414 3.50687,1.72014 0.7472,1.72014 -1.05672,0 -2.25755,-0.54404 -2.66851,-1.20898 z m 26.95706,0.46512 c -0.40913,-0.40914 -0.44586,-1.88348 -0.0816,-3.27634 0.70222,-2.68529 8.72764,-6.08034 11.02165,-4.66257 0.74767,0.46208 1.3594,0.20475 1.3594,-0.57187 0,-2.07993 4.75317,-1.71765 6.59593,0.50275 1.17956,1.42128 1.20954,2.62401 0.11635,4.66667 -1.78177,3.32926 -1.91039,3.33878 -6.29476,0.46604 -3.36851,-2.20714 -3.55616,-2.18418 -5.44905,0.66666 -1.83308,2.76078 -5.5778,3.89875 -7.2679,2.20866 z m 83.9267,-1.03186 c -1.48569,-3.77742 -1.24349,-5.70716 0.49776,-3.9659 0.80211,0.8021 1.23438,2.5721 0.96062,3.93333 -0.48011,2.38711 -0.53187,2.38825 -1.45838,0.0325 z m 9.18134,-1.66849 c -0.44551,-1.16097 -1.55971,-1.85832 -2.47599,-1.54964 -1.82315,0.6142 -4.88945,-2.68877 -4.95689,-5.33948 -0.0233,-0.91667 0.8576,-1.66667 1.9576,-1.66667 1.1111,0 2,-1.18518 2,-2.66666 0,-1.46667 0.45,-2.66257 1,-2.65756 1.98604,0.0181 7,8.90478 7,12.40673 0,3.94437 -3.17923,4.97956 -4.52472,1.47328 z m -59.98246,-2.84073 c -0.47178,-0.47179 -3.0478,-0.90068 -5.72448,-0.9531 -5.57156,-0.10906 -6.90535,-2.10114 -3.61196,-5.39453 1.517,-1.517 3.75893,-2.10224 6.72619,-1.75583 3.02824,0.35353 4.45076,-0.0341 4.45076,-1.21266 0,-2.62565 3.73475,-2.07254 6.30937,0.9344 1.2558,1.46666 3.64992,2.66666 5.32028,2.66666 2.14812,0 3.03702,0.7805 3.03702,2.66667 0,3.37821 -4.64276,3.61355 -6.57602,0.33333 -0.92788,-1.57436 -1.70841,-1.85613 -2.39958,-0.86626 -1.52074,2.17786 -6.54564,4.56725 -7.53158,3.58132 z m -39.12243,-6.57941 c -1.68516,-3.62989 -1.24175,-5.80231 1.18428,-5.80231 0.76852,0 1.05194,0.9 0.62983,2 -0.42211,1.1 -0.22359,2 0.44115,2 0.66474,0 1.11823,1.2 1.00775,2.66666 -0.27211,3.61234 -1.31269,3.33668 -3.26301,-0.86435 z m 84.08954,-2.67751 c -1.1646,-3.7208 -1.09387,-4.81022 0.34823,-5.3636 1.31714,-0.50544 1.45245,-1.3619 0.49714,-3.1469 -0.89464,-1.67165 -0.84409,-2.74197 0.15875,-3.36176 0.83815,-0.518 1.14092,-2.56098 0.7036,-4.74758 -0.42584,-2.12926 -0.18881,-3.8383 0.53235,-3.8383 0.715,0 1.3,1.08 1.3,2.4 0,1.32 0.67454,3.07454 1.49898,3.89898 1.10975,1.10976 1.10975,2.61553 0,5.79897 -0.82444,2.36499 -1.49898,5.97504 -1.49898,8.02233 0,5.49778 -1.8692,5.67618 -3.54007,0.33786 z m 22.13731,1.45821 c -1.58388,-1.90847 -1.43976,-2.11639 1.18604,-1.71107 1.64396,0.25376 3.01025,1.04639 3.0362,1.76139 0.0815,2.24413 -2.34199,2.21525 -4.22224,-0.0503 z m -82.59724,-4.58301 c 0,-1.46667 0.6,-2.66667 1.33333,-2.66667 0.73333,0 1.33333,1.2 1.33333,2.66667 0,1.46666 -0.6,2.66666 -1.33333,2.66666 -0.73333,0 -1.33333,-1.2 -1.33333,-2.66666 z m -48.60973,0.0921 c -0.4219,-0.68266 -0.15731,-1.61807 0.58798,-2.07869 0.7453,-0.46062 1.35508,0.0979 1.35508,1.2412 0,2.34204 -0.80007,2.68688 -1.94306,0.83749 z m 9.42829,-0.79738 c -1.70618,-1.70615 -1.72365,-5.96139 -0.0245,-5.96139 1.38841,0 5.87259,4.80773 5.87259,6.29632 0,2.33636 -3.36983,2.14338 -5.84811,-0.33491 z m 28.99043,0.0216 c -0.79701,-2.07692 1.61048,-5.98299 3.6876,-5.98299 0.64354,0 1.17008,1.8 1.17008,4 0,4.301 -3.43076,5.70152 -4.85768,1.98302 z m 33.73827,-1.2929 c -2.26645,-2.26645 -1.43876,-7.35679 1.19622,-7.35679 2.47214,0 3.91766,2.76734 2.04885,3.92234 -0.85213,0.52664 -1.1648,1.95956 -0.69484,3.18426 1.05717,2.75497 0.0531,2.85348 -2.55023,0.25019 z m 16.90772,-3.79164 c -5.28186,-4.19974 -5.41896,-4.48769 -2.889,-6.06768 3.94628,-2.46449 9.10068,1.2358 9.10068,6.53327 0,2.1831 -0.15,3.96344 -0.33333,3.95632 -0.18333,-0.007 -2.82859,-1.99698 -5.87835,-4.42191 z m -69.48273,-5.12623 c -2.60559,-2.60559 -1.93843,-3.35436 2.41892,-2.71484 2.23181,0.32756 3.83209,1.27365 3.55618,2.10241 -0.72503,2.17778 -4.06719,2.52034 -5.9751,0.61243 z m 84.02775,0.67807 c -0.91667,-0.36988 -1.66667,-1.89751 -1.66667,-3.39473 0,-2.2888 -0.6118,-2.59987 -3.84259,-1.95371 -5.05225,1.01045 -5.6089,0.21137 -3.2069,-4.60354 1.30014,-2.606206 2.68769,-3.744136 3.9669,-3.253256 1.08204,0.41522 2.29175,0.75495 2.68823,0.75495 0.39648,0 -0.0512,0.93037 -0.99499,2.067486 -1.44598,1.74231 -1.28134,2.18111 1.0468,2.78994 1.51947,0.39734 3.11854,1.71698 3.55347,2.93251 0.43493,1.21553 1.14041,2.96006 1.56772,3.87673 0.79869,1.7134 -0.19047,1.96248 -3.11197,0.78362 z m -26.33334,-3.11696 c -0.45322,-0.73333 -0.18864,-1.33333 0.58798,-1.33333 0.77661,0 1.41202,0.6 1.41202,1.33333 0,0.73334 -0.26458,1.33334 -0.58797,1.33334 -0.32339,0 -0.9588,-0.6 -1.41203,-1.33334 z m -54.69663,-3.21486 c -1.56598,-0.84308 -2.49737,-2.46108 -2.22136,-3.85892 0.58169,-2.946036 2.73124,-2.388346 5.21548,1.35313 2.2092,3.32723 0.76957,4.53206 -2.99412,2.50579 z m 22.02997,-0.11847 c 0,-1.11111 1.18518,-2 2.66667,-2 1.48148,0 2.66666,0.88889 2.66666,2 0,1.11111 -1.18518,2 -2.66666,2 -1.48149,0 -2.66667,-0.88889 -2.66667,-2 z m 0,-5.999996 c 0,-0.73333 0.6,-1.33333 1.33333,-1.33333 0.73334,0 1.33334,0.6 1.33334,1.33333 0,0.73333 -0.6,1.33333 -1.33334,1.33333 -0.73333,0 -1.33333,-0.6 -1.33333,-1.33333 z m -29.71932,-2.66534 c -0.38335,-1.46593 -0.22131,-2.95933 0.36008,-3.31865 1.53276,-0.9473 4.41211,2.94707 3.39534,4.59225 -1.35385,2.19058 -2.99507,1.63398 -3.75542,-1.2736 z m -52.19495,-1.72549 c 0.5007,-1.31497 1.24625,-2.05497 1.65677,-1.64445 0.41051,0.41052 8.4e-4,1.48639 -0.91038,2.39084 -1.31682,1.30702 -1.46997,1.15387 -0.74639,-0.74639 z m 59.2476,-6.275833 c 0,-0.733333 0.6,-1.333333 1.33334,-1.333333 0.73333,0 1.33333,0.6 1.33333,1.333333 0,0.733334 -0.6,1.333334 -1.33333,1.333334 -0.73334,0 -1.33334,-0.6 -1.33334,-1.333334 z m -57.33333,-9.254644 c 0,-1.423388 0.6,-2.958797 1.33333,-3.412022 0.75622,-0.467364 1.33334,0.652821 1.33334,2.587977 0,1.876612 -0.6,3.412023 -1.33334,3.412023 -0.73333,0 -1.33333,-1.16459 -1.33333,-2.587978 z m 56,-1.490712 c 0,-0.776612 0.6,-1.041202 1.33333,-0.587977 0.73334,0.453225 1.33334,1.088635 1.33334,1.412023 0,0.323388 -0.6,0.587977 -1.33334,0.587977 -0.73333,0 -1.33333,-0.635411 -1.33333,-1.412023 z m -68,-6.587977 c 0,-0.733333 0.93541,-1.333333 2.07869,-1.333333 1.14328,0 1.70787,0.6 1.25464,1.333333 -0.45322,0.733333 -1.38863,1.333333 -2.07868,1.333333 -0.69006,0 -1.25465,-0.6 -1.25465,-1.333333 z m 40.6188,-12.333336 c 0.5114,-1.65 1.25133,-4.35 1.64428,-6 0.39295,-1.65 1.24451,-3 1.89236,-3 1.61884,0 1.48418,6.26968 -0.20235,9.42099 -1.94313,3.63077 -4.4904,3.30915 -3.33429,-0.42099 z m 70.04786,32.333336 c 0,-0.733333 -0.6,-1.333333 -1.33333,-1.333333 -0.73333,0 -1.33333,0.6 -1.33333,1.333333 0,0.733333 0.6,1.333336 1.33333,1.333336 0.73333,0 1.33333,-0.600003 1.33333,-1.333336 z M 579.0719,87.693651 c 0,-0.733333 -0.6,-1.333333 -1.33333,-1.333333 -0.73333,0 -1.33333,0.6 -1.33333,1.333333 0,0.733334 0.6,1.333334 1.33333,1.333334 0.73333,0 1.33333,-0.6 1.33333,-1.333334 z m 125.33333,0.09245 c 0,-1.829279 -5.76397,-10.512022 -7.45424,-11.228931 -0.79984,-0.339241 -2.29984,-0.09169 -3.33333,0.550104 -1.48195,0.920281 -0.75189,2.293936 3.45424,6.499448 5.35693,5.356137 7.33333,6.482517 7.33333,4.179379 z M 615.73857,66.360318 c -0.45323,-0.733336 -1.42405,-1.333336 -2.15738,-1.333336 -0.73333,0 -0.96251,0.6 -0.50929,1.333336 0.45323,0.733333 1.42405,1.333333 2.15738,1.333333 0.73333,0 0.96251,-0.6 0.50929,-1.333333 z m -7.33333,-7.254646 c 0,-2.1235 -2.41915,-4.10399 -3.58676,-2.93637 -1.09686,1.09685 0.61536,4.85768 2.21158,4.85768 0.75635,0 1.37518,-0.86459 1.37518,-1.92131 z"
         id="path146"
         sodipodi:nodetypes="ssssssssssssssssssssscscsssssscssssssssssssssssssssssssssssssssssssssssscsssscssssssssssssssssssssssssssscsssssssssscsssssssssssssssscsssssssssssssssssssssssssssssssssssssscssssssssssssssssscsssssssssssssssssssscssscsssssssssssssssssscssssscssssssssscsssssssscsssssssccssscssssssssssssssssscsssssssscsssssssscssccssssssssscssssssscsssssssssssssssssssscssssssssssscssccssssssssssssscssssssssssscssssssssssssssssssssssssssssssssssssssssssssssssssssssssssssssssssssssssssssssss"
         inkscape:highlight-color="#355df3" />
      <path
         style="fill:#f8f8f8;fill-opacity:1;stroke-width:0;stroke-dasharray:none"
         d="m 596.95181,176.03488 c -2.3222,-0.27469 -4.75941,-0.94172 -5.9423,-1.62631 -1.62638,-0.94128 -2.76239,-1.14932 -7.71234,-1.41241 -5.60464,-0.29789 -7.36186,-0.57944 -8.78799,-1.40803 -1.14992,-0.66811 -4.88288,-1.59946 -6.44705,-1.60848 -0.82416,-0.005 -0.94824,-0.0829 -0.94824,-0.59745 0,-0.32558 0.1692,-1.15055 0.37601,-1.83326 1.31622,-4.34502 1.58113,-14.10217 0.66533,-24.50475 -0.87874,-9.98166 -0.68707,-14.84798 0.85272,-21.65011 1.2584,-5.55909 1.5001,-8.61889 1.48572,-18.80809 -0.0235,-16.672511 -0.95894,-24.773203 -3.0506,-26.418507 -0.43103,-0.33905 -1.02892,-0.511483 -1.77348,-0.511483 -2.97095,0 -3.99838,3.964548 -2.95153,11.389024 0.6971,4.943909 0.12502,10.423231 -1.41138,13.518056 -1.54659,3.11535 -4.73305,5.77034 -8.35682,6.96296 -1.65829,0.54576 -2.33146,0.62145 -5.43291,0.61084 -3.14683,-0.0108 -3.76482,-0.0873 -5.563,-0.6889 -2.56083,-0.85677 -4.90728,-2.23142 -6.58318,-3.85671 -2.08868,-2.02561 -2.25734,-2.49502 -2.26924,-6.315419 -0.0105,-3.370884 -0.2415,-4.336654 -1.23439,-5.160676 -0.63753,-0.529105 -0.91277,-0.07406 -0.91277,1.509076 0,0.826242 -0.0987,1.502258 -0.21926,1.502258 -0.12059,0 -0.51837,-0.451981 -0.88394,-1.004402 -0.83616,-1.26352 -1.8482,-1.793887 -3.31704,-1.738327 -1.3988,0.05291 -2.0199,-0.450505 -3.11678,-2.526188 -1.74466,-3.301538 -2.8277,-8.369924 -2.82937,-13.240907 -0.002,-6.598092 1.07217,-8.466538 10.34718,-17.99361 10.43598,-10.719597 11.65094,-12.164594 11.65094,-13.856893 0,-0.635724 -0.20973,-1.181463 -0.65943,-1.715905 -1.36013,-1.616427 -2.63902,-1.892898 -6.23712,-1.348348 -4.1298,0.625021 -4.24907,-0.0069 -0.52838,-2.799278 2.83845,-2.130293 7.33508,-4.79811 13.6201,-8.080703 2.7815,-1.452748 5.52296,-3.052028 6.09212,-3.553957 0.56917,-0.501927 1.3921,-1.625536 1.82874,-2.496907 1.56145,-3.116129 1.93418,-6.179614 1.15227,-9.470613 -0.49377,-2.078239 -0.55087,-7.2936292 -0.10606,-9.6877298 0.38383,-2.0658733 1.1973,-3.9870276 1.83207,-4.3267469 0.52146,-0.2790729 1.6669,0.2641038 1.82326,0.8646041 0.59522,2.2858679 1.52347,4.7451199 2.92932,7.7608263 1.58303,3.3957503 2.24937,5.1367563 2.63604,6.8873393 0.19793,0.896117 1.12484,1.487745 2.72787,1.74115 1.56944,0.248094 2.40761,0.976745 2.79661,2.431172 0.58319,2.180473 0.93373,1.070308 0.93852,-2.972336 0.002,-1.601737 0.12438,-4.728974 0.27218,-6.949416 0.49556,-7.4449191 1.51602,-10.10649312 3.40128,-8.871223 0.87074,0.5705296 1.06746,1.0484296 1.63348,3.9683513 0.96517,4.9789677 1.80916,6.7537167 5.69573,11.9771027 1.23936,1.665639 4.07995,5.762031 6.31244,9.103095 3.77266,5.646046 14.83027,20.743931 19.44993,26.556626 2.50709,3.154549 11.36084,12.015112 14.56976,14.580971 6.44042,5.149785 8.5593,6.07754 16.05684,7.030525 7.21973,0.917673 11.62717,1.136281 23.0106,1.141318 14.42344,0.0064 22.69623,-0.648772 25.55266,-2.023615 2.41955,-1.164572 3.14666,-3.585828 3.14965,-10.488217 0.003,-6.602976 -0.68559,-11.849592 -2.664,-20.302089 -2.56834,-10.972886 -3.26342,-18.106075 -2.04717,-21.008859 0.36017,-0.85963 0.46023,-0.937713 0.81951,-0.639539 1.23923,1.028469 4.84235,7.177251 8.50551,14.51477 2.84651,5.701734 3.78808,7.892356 4.24299,9.871614 0.5941,2.584821 1.09194,4.097558 2.05115,6.232608 1.88749,4.201235 2.54774,8.070789 3.139,18.396799 0.45845,8.006668 0.57228,8.789759 1.46378,10.069659 0.85721,1.230683 4.81814,5.75063 8.62053,9.837169 6.31413,6.785978 8.94289,10.59306 13.67704,19.80766 3.17795,6.18559 4.02603,7.67549 5.19969,9.13476 0.36127,0.44919 0.59586,1.22825 0.72553,2.40948 0.18977,1.72881 0.81109,3.37472 1.27392,3.37472 0.52485,0 1.05624,1.68615 1.39695,4.43266 0.3933,3.17048 1.01607,4.7574 2.37242,6.04528 0.91974,0.8733 0.97561,1.5257 0.24988,2.91804 -0.97696,1.87434 -1.25397,5.00564 -1.33149,15.05119 -0.0742,9.61557 -0.18525,10.85023 -1.18582,13.18448 -0.62821,1.46554 -2.12145,3.04623 -3.57217,3.78137 -1.47864,0.74928 -12.09739,2.61675 -16.01237,2.81603 -4.97257,0.2531 -7.58532,-0.84764 -11.70279,-4.93033 -2.7038,-2.68096 -4.57627,-4.10484 -5.39808,-4.10484 -0.75267,0 -1.77824,-1.10718 -2.5956,-2.80212 -0.89345,-1.85274 -1.58237,-2.34673 -2.7198,-1.95022 -0.8255,0.28777 -1.55553,1.51724 -1.84451,3.10644 -0.2611,1.43589 -1.67054,2.70862 -3.58003,3.23279 -2.15757,0.59227 -5.09221,0.94195 -7.89165,0.94034 -2.83503,-0.002 -4.21562,-0.3119 -5.1022,-1.14662 -0.81548,-0.7678 -2.28951,-1.37912 -3.34232,-1.38616 -1.2438,-0.008 -2.82764,-0.83387 -4.33516,-2.25962 -0.74142,-0.7012 -1.51386,-1.27492 -1.71652,-1.27492 -0.20266,0 -0.76061,0.40797 -1.23989,0.9066 -0.47927,0.49862 -1.1799,1.0682 -1.55695,1.26572 -1.68758,0.88406 -5.94033,1.40369 -16.38276,2.00173 -8.90658,0.51009 -8.96451,0.51763 -12.89226,1.67855 -4.12045,1.21787 -5.76813,2.05395 -6.23102,3.16181 -0.4569,1.0935 -1.31144,1.70725 -3.5923,2.58006 -3.36034,1.28589 -9.56664,2.46889 -16.09901,3.06867 -3.15878,0.29004 -11.81801,0.28696 -14.2868,-0.005 z m 4.39398,-7.34571 c 0.36807,-0.28952 1.19062,-1.62007 1.82789,-2.95677 1.40583,-2.9488 2.733,-4.94584 4.11895,-6.19796 1.65891,-1.49872 2.06586,-1.15109 1.4433,1.23294 -0.21155,0.81011 -0.32837,1.52919 -0.25959,1.59796 0.0688,0.0688 0.98043,-0.75854 2.02591,-1.83847 2.609,-2.695 2.97795,-2.5828 2.50127,0.76063 -0.26905,1.88704 -0.0213,1.97848 5.26458,1.94361 5.17938,-0.0342 7.51018,-0.25285 7.51018,-0.70464 0,-0.18 -0.64087,-1.0455 -1.42415,-1.92334 -1.7298,-1.93863 -2.35746,-3.24686 -2.35845,-4.91576 l -7.6e-4,-1.26432 0.75078,1.19553 c 1.07997,1.71972 2.35462,2.47162 4.77664,2.81769 1.10451,0.15781 2.1027,0.38353 2.21819,0.5016 0.1155,0.11808 0.20999,1.25262 0.20999,2.52121 0,2.75589 0.28189,2.98995 1.87143,1.55389 1.81548,-1.64018 3.05104,-4.91111 3.05641,-8.09132 0.003,-1.51432 -0.1279,-2.05034 -0.88202,-3.62392 -1.74025,-3.63129 -0.80016,-4.6106 1.38172,-1.43935 0.9528,1.38485 1.49224,1.51634 2.97858,0.72605 1.50235,-0.79881 2.408,-0.68185 5.33261,0.68867 2.25239,1.0555 3.32586,1.23516 3.82032,0.63938 0.16489,-0.19868 0.61809,-1.11569 1.00712,-2.0378 0.38903,-0.92211 0.80855,-1.69831 0.93227,-1.72489 0.12371,-0.0266 0.73698,0.94893 1.36282,2.1678 1.35551,2.63997 2.37343,3.72038 3.98713,4.2319 1.01322,0.32117 1.24015,0.51491 1.48096,1.26432 0.37678,1.17254 1.15677,1.24491 4.35263,0.4038 7.61874,-2.00516 15.16592,-1.21674 22.53247,2.35384 2.26293,1.09685 3.46701,1.30197 3.72324,0.63425 0.0846,-0.22058 -0.0327,-1.07228 -0.2608,-1.89266 -0.71796,-2.58235 -0.57448,-2.82023 1.35701,-2.24982 1.38144,0.40797 3.21873,0.34681 3.94863,-0.13144 1.03669,-0.67927 1.61482,-2.3545 1.86198,-5.39546 0.25218,-3.10265 0.74043,-4.57249 1.82087,-5.48162 1.36691,-1.15018 2.8117,-0.69201 3.77554,1.19727 0.46303,0.90762 0.50725,1.29484 0.35567,3.1145 -0.14962,1.79625 -0.10468,2.21061 0.33144,3.05585 0.97279,1.88532 3.83382,4.13862 5.25484,4.13862 1.2245,0 1.61841,-0.76493 1.8628,-3.61729 0.27719,-3.23527 0.9706,-4.5592 2.90495,-5.54643 1.48606,-0.75843 2.40543,-0.97075 2.94743,-0.68068 0.6901,0.36933 0.58717,1.10556 -0.44724,3.19905 -0.87228,1.76535 -0.91303,1.95908 -0.77523,3.68538 0.08,1.00215 0.3859,2.50482 0.67977,3.33927 0.9352,2.65545 0.94335,4.21729 0.0356,6.82023 -0.43422,1.24506 -0.78948,2.57284 -0.78948,2.95062 0,1.90253 2.04654,1.9495 5.99579,0.13761 2.85791,-1.31118 3.59288,-1.44275 3.79262,-0.67894 0.0727,0.27815 0.24779,0.50573 0.389,0.50573 1.09383,0 4.72861,-3.68986 5.88371,-5.97289 0.69435,-1.37235 0.75965,-1.74024 0.87864,-4.94967 0.0767,-2.06885 0.24369,-3.58193 0.41406,-3.75178 0.15703,-0.15655 0.78119,-0.39601 1.38701,-0.53213 1.44365,-0.32437 1.99399,-0.85129 1.99399,-1.90914 0,-2.6639 -2.79419,-4.88353 -6.14765,-4.88353 -2.05257,0 -3.13468,0.47471 -5.01458,2.1999 -0.95476,0.87618 -1.90351,1.59305 -2.10833,1.59305 -1.14919,0 -1.72592,-3.367 -1.03958,-6.06917 0.5291,-2.08311 1.52158,-3.70387 2.83211,-4.62494 1.41366,-0.99355 2.71138,-1.12306 4.62335,-0.46138 2.76402,0.95654 6.10223,0.49196 6.29778,-0.87646 0.0467,-0.32663 -0.54001,-1.38352 -1.54475,-2.78277 -1.99433,-2.77743 -2.89571,-4.52373 -3.22138,-6.24097 -0.29585,-1.56 -1.11591,-2.66352 -3.11282,-4.18879 -1.6501,-1.26037 -2.38681,-2.40128 -1.91649,-2.96799 0.37761,-0.45499 0.86904,-0.45374 2.63682,0.007 1.76529,0.4598 2.20409,0.31557 2.10292,-0.6912 -0.15125,-1.50511 -1.87695,-2.18911 -5.54861,-2.19925 -2.95562,-0.008 -3.38386,-0.33601 -3.36486,-2.57607 0.0163,-1.92278 0.66576,-3.34179 1.99267,-4.35387 1.34316,-1.02447 1.22229,-1.66834 -0.5523,-2.94217 -2.11884,-1.52093 -5.86997,-3.31543 -7.25727,-3.4718 -1.1889,-0.134 -1.19069,-0.13304 -1.10742,0.59445 0.0568,0.49628 0.30134,0.83263 0.76674,1.05464 0.93149,0.44436 1.71887,1.50282 1.71887,2.31067 0,1.10048 -0.60492,1.67734 -2.11281,2.01479 -0.98465,0.22036 -1.71819,0.60189 -2.52845,1.31511 -1.57601,1.38726 -3.22384,2.06157 -5.37882,2.20109 -1.58912,0.10289 -1.86546,0.0532 -2.33899,-0.4203 -0.99863,-0.99862 -0.54609,-4.32993 0.58819,-4.32993 0.55903,0 0.68261,-0.76151 0.50078,-3.08584 l -0.17293,-2.2107 0.86734,-0.82861 c 0.47704,-0.45573 1.288,-1.14637 1.80213,-1.53476 0.63707,-0.481246 0.93479,-0.906036 0.93479,-1.333784 0,-0.949741 -0.986,-1.231576 -3.10341,-0.887064 -0.94195,0.153261 -2.0028,0.205834 -2.35742,0.116825 -0.66489,-0.166874 -1.11363,-0.959334 -1.11363,-1.966609 0,-0.735576 -0.91191,-1.568833 -1.95938,-1.790384 -1.12445,-0.237834 -1.58071,-0.988956 -1.58071,-2.602252 0,-1.871323 -0.67631,-3.052518 -2.55734,-4.466514 -2.40572,-1.808413 -6.99133,-3.996952 -8.66569,-4.135802 -1.22976,-0.101982 -1.45587,-0.04243 -2.03402,0.535725 -0.4867,0.486702 -0.65046,0.910886 -0.65046,1.684902 0,2.219701 -2.135,2.972896 -3.54009,1.248889 -2.01799,-2.476006 -3.40404,-3.298302 -4.91877,-2.918131 -1.53994,0.386502 -1.07705,1.576712 1.92821,4.957942 2.46583,2.77431 3.49628,4.216701 3.49628,4.893956 0,0.419908 -0.12912,0.4587 -1.04127,0.312843 -1.25968,-0.201434 -3.71834,-1.389929 -5.0387,-2.435675 -0.53423,-0.423117 -1.09554,-1.157383 -1.25567,-1.642562 -0.18203,-0.551567 -0.49355,-0.927532 -0.83886,-1.012404 -0.54574,-0.134131 -2.40647,0.304567 -6.45703,1.522346 -4.39219,1.320495 -6.10329,0.648042 -6.10329,-2.398567 0,-3.222037 -2.11557,-3.57564 -5.82155,-0.973029 -2.15604,1.514128 -3.53441,2.865826 -3.53441,3.466018 0,1.181139 2.51076,2.446073 5.52444,2.783241 1.13586,0.127079 2.34351,0.413412 2.68368,0.636296 1.19113,0.780457 1.06861,3.191776 -0.20759,4.085664 -1.34079,0.939123 -4.12898,-0.01636 -5.22563,-1.790794 -0.93174,-1.507586 -2.22748,-2.006683 -2.61151,-1.005909 -0.39095,1.018785 -6.84633,2.360184 -12.45051,2.587165 -4.59315,0.186032 -5.34298,0.05034 -5.80275,-1.050044 -0.5839,-1.39747 0.14698,-3.015297 1.96975,-4.360095 0.44755,-0.330189 1.90666,-0.937611 3.24247,-1.349827 2.58811,-0.798662 3.26883,-1.284664 3.26883,-2.333821 0,-1.825203 -3.05095,-3.508277 -9.30517,-5.133261 -3.85828,-1.002465 -5.66901,-0.805618 -7.13098,0.775223 -0.96569,1.044218 -3.57029,2.83394 -5.12466,3.521352 -2.8784,1.272967 -5.74848,1.470734 -5.74848,0.396109 0,-0.285574 1.2607,-1.821714 2.98256,-3.634181 3.46454,-3.646846 4.68934,-5.664504 4.55672,-7.506437 -0.075,-1.041131 -0.13348,-1.119582 -0.96482,-1.2933 -0.48676,-0.101714 -1.95602,-0.426012 -3.26502,-0.720661 -1.309,-0.29465 -2.63844,-0.470866 -2.9543,-0.391588 -0.7047,0.176868 -0.85599,0.62732 -1.09633,3.264203 -0.17314,1.899546 -0.55954,3.200355 -0.95067,3.200355 -1.10994,0 -4.8826,-5.387699 -4.8826,-6.972801 0,-0.185119 0.5405,-0.575313 1.2011,-0.867095 3.20346,-1.414927 4.00117,-4.078202 1.78107,-5.946299 -0.54432,-0.458014 -1.04289,-0.627039 -1.84958,-0.627039 -1.74957,0 -2.29992,-0.661982 -2.9138,-3.504805 -0.70962,-3.286182 -1.09343,-4.138833 -1.81683,-4.036168 -0.43758,0.0621 -0.80607,0.559254 -1.54866,2.089357 -0.68314,1.407635 -1.03334,1.898974 -1.17148,1.643615 -0.10836,-0.200339 -0.4371,-1.823636 -0.73051,-3.607327 -1.21488,-7.385348 -4.8003,-16.487536 -7.88158,-20.008681 -1.26061,-1.440575 -1.35276,-1.647119 -1.62308,-3.638221 -0.1923,-1.416434 -0.88042,-2.734403 -1.9778,-3.788172 -0.7016,-0.673713 -1.04425,-0.824048 -1.72899,-0.758592 -0.7618,0.07283 -0.86265,0.171902 -0.93429,0.917845 -0.0519,0.53988 0.19457,1.423616 0.69537,2.493811 0.42663,0.911682 0.77569,1.991846 0.77569,2.400362 0,1.592895 -1.33033,2.977645 -2.46323,2.563993 -0.24459,-0.0893 -0.78607,-0.445073 -1.2033,-0.790596 -2.843,-2.35441 -5.9602,-1.985345 -7.9474,0.940939 -1.16386,1.713855 -1.61167,2.118985 -2.21821,2.006795 -0.8543,-0.158017 -1.35688,-1.771195 -1.61525,-5.184635 -0.13429,-1.774011 -0.41432,-3.969263 -0.62231,-4.878336 -0.9237,-4.037251 -2.71801,-8.182334 -3.64712,-8.425302 -1.1365,-0.297202 -6.02504,3.016884 -6.45681,4.377262 -0.24481,0.77133 0.0922,1.478335 0.90517,1.898721 0.40737,0.210658 0.73958,0.579222 0.73824,0.819033 -0.004,0.679232 -2.39996,3.704578 -4.20409,5.307964 -0.89712,0.797307 -2.32616,1.874279 -3.17563,2.393275 -0.84947,0.518992 -1.75601,1.135044 -2.01453,1.369004 -0.67945,0.614889 -1.18109,2.548866 -1.6074,6.196917 -0.47397,4.055891 -1.06114,5.931179 -2.5193,8.046033 -0.639,0.926776 -1.46453,2.530714 -1.8345,3.564307 -0.60314,1.68498 -0.67404,2.24523 -0.68582,5.419351 -0.0128,3.44013 0.008,3.582932 0.74545,5.057275 0.66708,1.334157 0.84756,1.517182 1.49611,1.517182 1.16462,0 1.3399,-0.938026 0.79156,-4.23611 -0.585,-3.518561 -0.23624,-4.0522 2.02957,-3.105478 1.23003,0.513936 1.7814,1.883908 2.12746,5.286048 0.31648,3.111226 0.15033,4.816468 -0.53618,5.502976 -0.65739,0.657387 -0.98105,0.608438 -3.56725,-0.539503 -1.25328,-0.5563 -2.54055,-1.011455 -2.86058,-1.011455 -0.782,0 -1.41139,0.862936 -2.37757,3.259793 -0.44425,1.102097 -1.20629,2.469437 -1.69342,3.038535 -1.73587,2.027982 -1.86333,1.160933 -0.5736,-3.902168 1.6692,-6.552802 1.42409,-8.732253 -1.12063,-9.964132 -2.9812,-1.443169 -7.60231,0.500837 -8.15168,3.429242 -0.23502,1.252786 0.44662,5.940369 1.28208,8.81671 1.08686,3.741865 2.6652,6.695824 4.77203,8.931117 1.00672,1.068114 2.02551,2.252614 2.26398,2.632226 0.57686,0.91832 1.1002,3.359145 1.30186,6.071873 0.29205,3.928602 1.23079,6.007549 2.71268,6.007549 0.68639,0 0.75135,-0.065 0.61363,-0.613672 -0.11786,-0.469604 0.002,-0.736734 0.51242,-1.137887 0.36654,-0.28832 0.77613,-0.52422 0.9102,-0.52422 0.57756,0 1.96803,-0.853814 2.35684,-1.447212 0.2548,-0.388867 0.54565,-1.716424 0.73234,-3.342679 0.37296,-3.248723 1.0496,-4.877327 2.8426,-6.841841 2.10578,-2.307202 2.23739,-2.687793 2.16058,-6.247717 l -0.0666,-3.08692 0.9735,-0.262137 c 2.46841,-0.664675 6.42899,-4.210828 7.85255,-7.030886 0.43426,-0.86026 0.78956,-1.724104 0.78956,-1.919653 0,-0.19555 0.16307,-0.490882 0.36238,-0.656293 0.29163,-0.242034 0.44213,-0.179023 0.77092,0.322763 0.58327,0.890194 1.75089,1.32998 2.55651,0.962913 2.82165,-1.285626 8.19478,2.479273 8.19478,5.741994 0,0.884343 0.5521,2.409648 0.96444,2.664486 0.50871,0.314398 1.55279,-0.348097 2.03033,-1.288288 0.67198,-1.323038 1.01582,-3.193765 1.27056,-6.912817 0.31818,-4.645319 0.82234,-5.558893 4.79545,-8.689647 l 2.10702,-1.660304 1.83477,1.66175 c 2.54283,2.303028 3.92115,4.696305 4.30674,7.478107 0.18239,1.315779 -0.26169,2.324938 -1.07441,2.441566 -0.73575,0.105583 -1.31593,-1.199719 -1.31593,-2.960622 0,-1.703268 -0.17413,-2.051714 -1.0253,-2.051714 -1.14872,0 -4.96934,1.497925 -5.80016,2.274034 -0.86883,0.811612 -0.96973,1.63816 -0.349,2.859014 0.52829,1.03904 0.47305,0.991292 1.24466,1.075994 0.36368,0.03992 1.1111,0.38434 1.66093,0.765378 1.30977,0.907667 4.06919,3.865591 3.9473,4.231255 -0.11788,0.353632 -1.03068,0.620477 -2.23619,0.653716 -1.87978,0.05183 -2.52899,1.14961 -3.5062,5.92877 -0.602,2.944105 -0.70711,5.313021 -0.25967,5.852147 0.17425,0.209963 0.67969,0.381748 1.1232,0.381748 0.9061,0 1.84005,0.728865 2.03406,1.587398 0.0699,0.309068 0.23917,1.713676 0.37628,3.121345 0.13711,1.407673 0.36581,2.865885 0.50823,3.240474 0.38921,1.023694 0.32054,2.157571 -0.14141,2.334836 -0.69482,0.266627 -1.36962,-0.710588 -1.5229,-2.205402 -0.2309,-2.251863 -0.51913,-2.768512 -1.5445,-2.768512 -0.74041,0 -1.12731,0.249549 -2.47261,1.594852 -2.34484,2.344844 -2.64515,4.018706 -0.98285,5.478219 1.07527,0.94411 2.74822,1.41642 6.29106,1.77612 3.34527,0.33964 5.18554,1.0579 5.8114,2.26818 0.56537,1.09331 0.74689,2.96281 0.40921,4.21464 -0.562,2.08344 -1.68052,2.09544 -3.21447,0.0345 -1.66665,-2.23922 -5.22722,-3.67617 -6.42443,-2.59271 -0.27561,0.24942 -0.5011,0.65665 -0.5011,0.90496 0,0.69863 -1.18365,3.83987 -2.70077,7.16748 -1.21663,2.6685 -2.10364,5.24059 -2.10364,6.09995 0,0.15908 0.27916,0.59046 0.62035,0.95861 1.57113,1.69528 1.49858,5.31805 -0.14396,7.18884 -0.86592,0.98626 -0.90463,1.61368 -0.20852,3.37971 0.57776,1.46581 0.69483,2.83192 0.38137,4.45027 -0.28848,1.4894 0.20186,1.42603 1.95644,-0.25287 1.75383,-1.67818 2.1088,-2.96871 1.67931,-6.10548 -0.45523,-3.3248 0.18684,-6.16094 1.69443,-7.48462 0.99642,-0.87487 1.57904,-0.848 2.58007,0.11895 l 0.59429,0.57407 -0.96515,-0.0311 c -0.74144,-0.0239 -0.9866,0.0743 -1.05773,0.42385 -0.13388,0.65783 0.56786,1.59966 1.74597,2.34338 0.91357,0.57671 0.98866,0.69657 0.68898,1.09987 -0.18498,0.24895 -0.69986,0.9329 -1.14418,1.5199 -0.49551,0.65463 -0.92205,1.62221 -1.10321,2.50257 -0.60254,2.92798 -1.24329,4.05619 -4.54191,7.99721 -0.76864,0.91834 -1.26321,1.75586 -1.26923,2.14934 -0.007,0.46475 -0.32472,0.87632 -1.13789,1.47452 -1.26346,0.92946 -1.41833,1.31953 -0.52388,1.31953 0.33228,0 0.8672,0.213 1.18871,0.47334 0.57613,0.46653 0.57986,0.50228 0.25844,2.48151 -0.42281,2.60354 -0.13258,3.77938 1.26845,5.13903 0.99112,0.96185 1.88902,1.44774 2.16512,1.17164 0.0751,-0.0751 0.01,-0.50077 -0.14549,-0.94585 -0.68581,-1.9673 -0.30211,-2.42643 2.81505,-3.36846 2.59856,-0.78531 3.70491,-1.70759 4.3392,-3.61726 0.58057,-1.74792 1.10972,-2.44991 1.5631,-2.07364 0.45665,0.37899 0.44842,1.3037 -0.0255,2.866 -0.20711,0.68271 -0.37656,1.54571 -0.37656,1.91777 0,0.38384 -0.45295,1.32308 -1.04702,2.17114 -1.32104,1.88585 -1.83383,3.08401 -2.32807,5.43965 -0.51109,2.43593 -0.75379,6.06487 -0.43767,6.54423 0.28233,0.42812 0.3079,0.38043 0.77565,-1.44688 0.15131,-0.59107 0.41379,-1.07467 0.58329,-1.07467 0.16951,0 1.02813,0.62787 1.90805,1.39528 0.87992,0.7674 1.93774,1.57001 2.35072,1.78357 1.46435,0.75724 3.44618,0.7394 6.3499,-0.0572 0.64994,-0.1783 0.54735,0.21181 -0.44251,1.68273 -1.10809,1.64661 -1.23811,3.38356 -0.31608,4.22242 1.04479,0.95054 1.65151,1.02362 2.56071,0.30844 z m 42.74488,-77.333256 c 0.62365,-0.68913 0.42896,-1.815805 -0.39314,-2.275117 -0.59672,-0.333388 -0.73524,-0.327016 -1.32754,0.06107 -1.18934,0.77929 -0.68565,2.697413 0.70833,2.697413 0.3162,0 0.77175,-0.217513 1.01235,-0.483366 z m -65.30174,-2.716622 c 0.569,-0.514944 0.58672,-1.061565 0.0588,-1.815233 -0.56356,-0.804584 -1.8431,-0.671528 -2.35499,0.244889 -0.33328,0.59667 -0.3269,0.73529 0.0612,1.327534 0.50621,0.77258 1.52706,0.883484 2.23499,0.24281 z m 125.58213,-0.657883 c 0.0559,-0.676261 -0.1509,-1.404754 -0.71794,-2.528637 -1.09623,-2.172712 -3.76147,-6.146582 -5.18254,-7.727158 -1.12197,-1.2479 -1.23967,-1.311022 -2.44461,-1.311022 -1.61206,0 -2.94019,0.614739 -3.15208,1.458973 -0.26741,1.065424 0.59272,2.25669 4.33731,6.00713 5.12871,5.136727 6.98615,6.200553 7.15986,4.100714 z M 616.00888,67.435734 c 0.41149,-1.072337 -1.05738,-2.486258 -2.44317,-2.351775 -1.1341,0.110057 -1.16894,0.7812 -0.0962,1.853899 0.95163,0.951632 2.26637,1.209399 2.53941,0.497876 z m -8.26021,-6.572577 c 1.224,-0.857329 0.93107,-3.085329 -0.58011,-4.412163 -1.07834,-0.946791 -1.96615,-0.996043 -2.52693,-0.140186 -0.7165,1.093517 0.30799,3.917449 1.67149,4.607352 0.79028,0.399861 0.7859,0.400031 1.43555,-0.055 z"
         id="path383" />
      <path
         style="fill:#f8f8f8;fill-opacity:1;stroke-width:0;stroke-dasharray:none"
         d="m 596.81831,176.03231 c -2.2838,-0.29865 -4.67337,-0.96661 -5.8088,-1.62374 -1.62638,-0.94128 -2.76239,-1.14932 -7.71234,-1.41241 -5.62465,-0.29896 -7.36141,-0.57914 -8.81083,-1.42141 -1.09943,-0.6389 -5.0042,-1.591 -6.55064,-1.59725 -1.00067,-0.004 -1.02746,-0.24798 -0.329,-2.99556 1.24614,-4.90199 1.43352,-13.55526 0.52109,-24.06419 -0.81872,-9.42973 -0.65056,-14.35207 0.71269,-20.86126 1.51311,-7.22477 1.69074,-9.33376 1.66113,-19.72337 -0.0471,-16.526913 -0.98292,-24.532954 -3.05854,-26.165637 -0.86455,-0.680057 -2.56868,-0.685273 -3.42653,-0.01049 -1.59346,1.253416 -2.04265,4.85486 -1.32649,10.6353 0.91867,7.415066 -0.15255,12.992811 -3.16447,16.477077 -1.41566,1.63767 -4.33011,3.52437 -6.58477,4.26272 -1.64412,0.53841 -2.33414,0.61535 -5.42386,0.60479 -3.14683,-0.0108 -3.76482,-0.0873 -5.563,-0.68891 -3.87368,-1.296 -7.43197,-3.97151 -8.50348,-6.39384 -0.4552,-1.02905 -0.49971,-1.466446 -0.34638,-3.403703 0.19773,-2.498314 -0.23966,-4.618629 -1.11645,-5.412116 -0.74262,-0.672054 -1.03327,-0.282201 -1.03327,1.385944 0,0.826242 -0.0987,1.502258 -0.21926,1.502258 -0.12059,0 -0.51837,-0.451981 -0.88394,-1.004402 -0.83616,-1.26352 -1.8482,-1.793887 -3.31704,-1.738327 -1.46541,0.05543 -2.12343,-0.52931 -3.31021,-2.941547 -1.69318,-3.441535 -2.63429,-8.02064 -2.63594,-12.825552 -0.002,-6.555217 1.07647,-8.452466 10.07685,-17.722995 10.73623,-11.058478 11.92127,-12.459651 11.92127,-14.095482 0,-0.670239 -0.20106,-1.203189 -0.65943,-1.747931 -1.35388,-1.608998 -2.6657,-1.90188 -6.07034,-1.355289 -3.60577,0.578881 -4.17705,0.24569 -2.42758,-1.41585 2.20915,-2.098104 8.1381,-5.726889 16.58188,-10.148849 4.86945,-2.550103 5.69653,-3.23818 6.86744,-5.713262 1.40314,-2.966009 1.72457,-5.967304 0.97633,-9.116556 -0.49377,-2.078239 -0.55087,-7.2936292 -0.10606,-9.6877298 0.38383,-2.0658733 1.1973,-3.9870276 1.83207,-4.3267469 0.52312,-0.2799669 1.67544,0.2687304 1.81575,0.8646041 0.3767,1.5997727 1.72747,5.1410749 3.04044,7.9710786 1.48974,3.211029 2.15328,4.960546 2.53243,6.677087 0.19668,0.890433 0.9747,1.387859 2.67515,1.710342 1.64864,0.312658 2.46258,1.015948 2.84933,2.46198 0.58319,2.180473 0.93373,1.070308 0.93852,-2.972336 0.002,-1.601737 0.12438,-4.728974 0.27218,-6.949416 0.49556,-7.4449191 1.51602,-10.10649312 3.40128,-8.871223 0.87631,0.5741813 1.06997,1.0521752 1.65543,4.0859347 0.92125,4.7738053 1.72578,6.4704823 5.48682,11.5711863 1.31633,1.785205 4.11966,5.824703 6.22961,8.976663 3.79447,5.668379 7.18685,10.360589 15.28215,21.137665 4.93399,6.56852 6.40324,8.311573 10.63546,12.617489 6.73571,6.853 13.11638,11.878199 16.9147,13.321446 2.88324,1.095548 10.37786,2.049613 20.03077,2.549916 10.7066,0.554918 28.14712,-0.0646 33.62151,-1.194288 2.25814,-0.465987 3.02192,-0.832296 3.8924,-1.866804 1.17782,-1.399755 1.48783,-2.967308 1.61714,-8.176997 0.17346,-6.988226 -0.48253,-12.409807 -2.58996,-21.405154 -2.56611,-10.953221 -3.27113,-18.181993 -2.05611,-21.081848 0.36017,-0.85963 0.46023,-0.937713 0.81951,-0.639539 1.23923,1.028469 4.84235,7.177251 8.50551,14.51477 2.8215,5.651626 3.77188,7.856044 4.25593,9.871614 0.72159,3.004696 1.08742,4.125924 2.02703,6.212685 1.91291,4.248308 2.54741,7.942311 3.14106,18.287192 0.46694,8.136767 0.57964,8.916988 1.47334,10.199189 0.82371,1.181799 4.66513,5.560552 8.62009,9.825868 6.40963,6.9126 8.85552,10.460451 13.71351,19.891941 1.84737,3.58656 3.73111,7.03656 4.18609,7.66667 1.29012,1.78671 1.71133,2.68141 1.71328,3.63922 0.003,1.41416 0.47415,2.7328 1.2663,3.54316 0.84614,0.86559 1.16157,1.88564 1.40653,4.54848 0.22749,2.47291 0.95319,4.38284 2.1647,5.69718 1.03331,1.12101 1.21821,1.93196 0.634,2.7807 -1.11297,1.61695 -1.4581,5.20046 -1.5299,15.88529 -0.0614,9.13886 -0.17665,10.38462 -1.17639,12.71693 -0.62821,1.46554 -2.12145,3.04623 -3.57217,3.78137 -1.47864,0.74928 -12.09739,2.61675 -16.01237,2.81603 -4.9565,0.25228 -7.54695,-0.83558 -11.6982,-4.91265 -2.76291,-2.71353 -4.60942,-4.12252 -5.40267,-4.12252 -0.75267,0 -1.77824,-1.10718 -2.5956,-2.80212 -0.89345,-1.85274 -1.58237,-2.34673 -2.7198,-1.95022 -0.8255,0.28777 -1.55553,1.51724 -1.84451,3.10644 -0.2611,1.43589 -1.67054,2.70862 -3.58003,3.23279 -2.15757,0.59227 -5.09221,0.94195 -7.89165,0.94034 -2.83503,-0.002 -4.21562,-0.3119 -5.1022,-1.14662 -0.81548,-0.7678 -2.28951,-1.37912 -3.34232,-1.38616 -1.2438,-0.008 -2.82764,-0.83387 -4.33516,-2.25962 -0.74142,-0.7012 -1.51309,-1.27492 -1.71481,-1.27492 -0.20171,0 -0.81028,0.45421 -1.35237,1.00936 -1.75849,1.80086 -4.12923,2.29878 -13.78312,2.89484 -12.54895,0.77481 -13.2811,0.85517 -16.56258,1.81791 -4.1676,1.22273 -6.14672,2.19185 -6.57644,3.2203 -0.18456,0.44171 -0.54717,0.99461 -0.8058,1.22868 -1.94647,1.76152 -10.05098,3.68709 -18.91559,4.4942 -3.19706,0.29108 -12.1661,0.285 -14.4203,-0.01 z m 4.50086,-7.3222 c 0.35343,-0.27801 1.3518,-1.93852 2.2186,-3.69002 1.21702,-2.45919 1.92904,-3.55356 3.12596,-4.80466 2.18067,-2.27937 2.84586,-2.09131 2.08338,0.58899 -0.22312,0.78431 -0.34719,1.48451 -0.2757,1.556 0.0715,0.0715 0.98536,-0.75362 2.03084,-1.83355 2.609,-2.695 2.97795,-2.5828 2.50127,0.76063 -0.26913,1.88766 -0.0388,1.96979 5.41717,1.93118 5.20487,-0.0368 7.35759,-0.24075 7.35759,-0.69691 0,-0.17741 -0.64087,-1.0408 -1.42415,-1.91864 -1.7298,-1.93863 -2.35746,-3.24686 -2.35845,-4.91576 l -7.6e-4,-1.26432 0.75078,1.19553 c 1.0705,1.70464 2.35753,2.47074 4.73377,2.81777 1.08093,0.15786 2.1196,0.38615 2.30816,0.50731 0.26473,0.1701 0.30326,0.64274 0.16911,2.07428 -0.28882,3.08212 0.15045,3.54422 1.882,1.97986 1.79888,-1.62518 3.03427,-4.90756 3.03962,-8.07615 0.003,-1.51432 -0.1279,-2.05034 -0.88202,-3.62392 -0.93271,-1.94626 -1.14969,-3.3227 -0.52378,-3.3227 0.4532,0 0.94806,0.49174 1.92759,1.91543 0.62955,0.91503 0.91195,1.11893 1.54965,1.11893 0.4289,0 1.16982,-0.24104 1.6465,-0.53564 1.12721,-0.69665 2.16369,-0.53596 5.11524,0.79306 2.33992,1.0536 3.31414,1.22873 3.77128,0.6779 0.15017,-0.18094 0.60146,-1.09885 1.00287,-2.03978 0.4014,-0.94093 0.83296,-1.72145 0.95902,-1.73448 0.12605,-0.013 0.76836,0.99021 1.42734,2.22943 1.37148,2.57909 2.48933,3.74671 3.96822,4.14494 0.8259,0.22239 1.12356,0.46789 1.47476,1.21632 0.56868,1.21188 1.07253,1.2649 4.28418,0.45079 7.75234,-1.96512 14.55155,-1.30236 22.12963,2.1571 2.78468,1.27124 3.9018,1.50791 4.14357,0.87787 0.0759,-0.19793 -0.0414,-1.06054 -0.2608,-1.91691 -0.60712,-2.36981 -0.56412,-2.61667 0.42291,-2.42773 2.37097,0.45386 4.15911,0.46751 4.81648,0.0368 1.11927,-0.73337 1.6938,-2.32386 1.94184,-5.37565 0.2543,-3.12874 0.74045,-4.59773 1.82307,-5.50869 1.36812,-1.1512 2.81168,-0.69205 3.77774,1.20159 0.46048,0.90261 0.5084,1.29959 0.36095,2.98997 -0.12688,1.45449 -0.0762,2.17371 0.19966,2.83395 0.82267,1.96894 3.84261,4.48073 5.38719,4.48073 1.21554,0 1.61088,-0.77104 1.85474,-3.61729 0.27719,-3.23527 0.9706,-4.5592 2.90495,-5.54643 1.48606,-0.75843 2.40543,-0.97075 2.94743,-0.68068 0.6906,0.3696 0.58508,1.1808 -0.41081,3.15801 -1.09807,2.18007 -1.14321,3.47456 -0.22996,6.59489 1.03021,3.51992 1.04933,4.61417 0.12921,7.39482 -0.43178,1.30486 -0.78505,2.63375 -0.78505,2.95309 0,1.79193 2.13405,1.80309 5.99579,0.0314 1.42018,-0.65156 2.80021,-1.18466 3.06674,-1.18466 0.26653,0 0.64981,0.24881 0.85173,0.55293 l 0.36714,0.55293 0.92422,-0.5712 c 1.36529,-0.8438 4.05077,-3.90233 4.87012,-5.54664 0.65108,-1.30661 0.72806,-1.75133 0.85407,-4.93392 0.15485,-3.91119 0.2058,-4.01908 2.03593,-4.31173 1.31753,-0.21068 1.88678,-1.03891 1.69529,-2.46657 -0.29695,-2.21394 -2.74042,-4.03467 -5.66449,-4.22086 -2.19178,-0.13956 -3.56931,0.42386 -5.55673,2.27275 -0.87356,0.81266 -1.75921,1.47757 -1.96813,1.47757 -1.15634,0 -1.73563,-3.35799 -1.047,-6.06917 0.5291,-2.08311 1.52158,-3.70387 2.83211,-4.62494 1.41366,-0.99355 2.71138,-1.12306 4.62335,-0.46138 1.79778,0.62215 3.96781,0.69168 5.22275,0.16734 1.53338,-0.64069 1.43488,-1.26268 -0.64252,-4.05724 -1.66665,-2.24201 -2.73124,-4.33696 -3.0452,-5.99247 -0.30006,-1.58223 -1.04851,-2.60132 -3.03062,-4.12652 -1.76216,-1.35595 -2.48067,-2.47141 -1.9803,-3.07431 0.32721,-0.39427 0.75527,-0.37769 3.13048,0.12122 1.34016,0.28149 1.63709,0.1524 1.63709,-0.71171 0,-1.45826 -2.07919,-2.27306 -5.8003,-2.27306 -2.73025,0 -3.18116,-0.36631 -3.16359,-2.57004 0.0153,-1.926 0.51059,-3.0167 1.94264,-4.2784 0.86003,-0.75773 1.00156,-1.01338 0.86413,-1.56093 -0.31279,-1.24629 -6.31081,-4.66791 -8.64366,-4.93085 -1.08104,-0.12185 -1.12964,-0.099 -1.12964,0.53122 0,0.47154 0.20909,0.76668 0.73627,1.03929 2.31356,1.19639 2.37613,3.87569 0.10047,4.30261 -1.23608,0.23188 -2.3014,0.78005 -3.23894,1.66659 -1.15822,1.09522 -3.05006,1.82136 -5.08924,1.95338 -1.58912,0.10289 -1.86546,0.0532 -2.33899,-0.4203 -0.99863,-0.99863 -0.54609,-4.32994 0.58819,-4.32994 0.55903,0 0.68261,-0.76151 0.50078,-3.08584 l -0.17293,-2.2107 0.86734,-0.82861 c 0.47704,-0.45573 1.288,-1.14637 1.80213,-1.53476 0.63707,-0.481246 0.93479,-0.906036 0.93479,-1.333784 0,-0.949741 -0.986,-1.231576 -3.10341,-0.887064 -0.94195,0.153261 -2.0028,0.205834 -2.35742,0.116825 -0.66489,-0.166874 -1.11363,-0.959334 -1.11363,-1.966609 0,-0.735576 -0.91191,-1.568833 -1.95938,-1.790384 -1.13172,-0.239371 -1.58071,-0.98731 -1.58071,-2.633179 0,-1.978133 -0.78306,-3.1734 -3.15176,-4.810882 -2.6202,-1.811342 -6.39999,-3.567374 -8.04336,-3.736821 -1.78562,-0.184115 -2.39701,0.312069 -2.68982,2.18298 -0.37246,2.3798 -2.14131,3.006803 -3.56266,1.26285 -2.01799,-2.476006 -3.40404,-3.298302 -4.91877,-2.918131 -1.52684,0.383212 -1.07194,1.525878 1.99699,5.016334 2.42039,2.752839 3.4275,4.173683 3.4275,4.835564 0,0.419908 -0.12912,0.4587 -1.04127,0.312843 -1.18579,-0.189618 -3.7285,-1.389259 -5.0005,-2.359227 -0.47194,-0.359878 -1.03064,-1.09364 -1.24156,-1.630586 -0.23146,-0.589259 -0.59298,-1.027712 -0.91197,-1.106049 -0.52659,-0.129315 -2.41933,0.319908 -6.43623,1.527567 -4.39219,1.320495 -6.10329,0.648042 -6.10329,-2.398567 0,-2.230809 -0.97098,-3.098888 -2.84397,-2.542585 -2.10418,0.624965 -6.51199,4.054387 -6.51199,5.066542 0,0.466564 0.80853,1.288468 1.74207,1.770889 0.96466,0.498498 2.04695,0.767636 4.01275,0.997871 1.00949,0.118231 2.11361,0.397236 2.4536,0.620009 1.19083,0.780262 1.06812,3.191707 -0.20789,4.085464 -1.34079,0.939123 -4.12898,-0.01636 -5.22563,-1.790794 -0.93174,-1.507586 -2.22748,-2.006683 -2.61151,-1.005909 -0.39095,1.018785 -6.84633,2.360184 -12.45051,2.587165 -4.59315,0.186032 -5.34298,0.05034 -5.80275,-1.050044 -0.23931,-0.572749 -0.28198,-1.080803 -0.13409,-1.596468 0.56323,-1.963874 2.00352,-3.074343 5.32775,-4.107726 2.64739,-0.822976 3.28739,-1.280164 3.28739,-2.348371 0,-1.585408 -2.41902,-3.070267 -7.53685,-4.626325 -3.00825,-0.914648 -5.78159,-1.319665 -6.97881,-1.01918 -0.36492,0.09159 -1.26756,0.713582 -2.00589,1.382212 -2.68225,2.429059 -5.15048,3.786672 -7.92705,4.360165 -1.79298,0.370334 -2.86069,0.173897 -2.86069,-0.526313 0,-0.280128 1.2262,-1.791411 2.84472,-3.5061 3.58517,-3.798199 4.60481,-5.421786 4.61057,-7.34152 0.004,-1.390738 0.002,-1.395563 -0.88083,-1.584267 -0.48676,-0.104104 -1.95602,-0.430357 -3.26502,-0.725006 -1.309,-0.29465 -2.63844,-0.470866 -2.9543,-0.391588 -0.7047,0.176868 -0.85599,0.62732 -1.09633,3.264203 -0.19168,2.102995 -0.56237,3.200355 -1.0811,3.200355 -0.88445,0 -4.3045,-4.778606 -4.64751,-6.493657 -0.15054,-0.75272 -0.0976,-0.818834 1.06958,-1.334355 3.23046,-1.426902 4.03642,-4.083029 1.80793,-5.958183 -0.53973,-0.454151 -1.04418,-0.627039 -1.82958,-0.627039 -1.78,0 -2.28155,-0.595211 -2.93186,-3.479344 -0.77304,-3.4284 -1.10214,-4.163336 -1.81877,-4.061629 -0.4363,0.06192 -0.8094,0.561696 -1.55344,2.080813 -0.6714,1.370817 -1.03966,1.887502 -1.17148,1.643614 -0.10574,-0.195708 -0.42735,-1.778134 -0.7147,-3.516572 -1.20894,-7.314069 -4.86457,-16.646673 -7.85461,-20.052366 -1.29829,-1.478765 -1.39031,-1.682457 -1.66108,-3.676816 -0.32158,-2.368653 -2.24503,-4.689988 -3.76389,-4.542505 -0.6981,0.06779 -0.80684,0.181037 -0.87719,0.913586 -0.0519,0.53988 0.19457,1.423616 0.69537,2.493811 0.42663,0.911682 0.77569,1.991846 0.77569,2.400362 0,1.596435 -1.33914,2.986177 -2.46323,2.556301 -0.24459,-0.09354 -0.92329,-0.535022 -1.50824,-0.981076 -1.37064,-1.045202 -2.63833,-1.453597 -4.0264,-1.297141 -1.45629,0.164144 -2.49566,0.914621 -3.88998,2.808755 -2.14022,2.907418 -3.14773,1.899796 -3.55919,-3.55959 -0.13408,-1.779097 -0.46093,-4.151075 -0.72632,-5.271064 -0.88968,-3.754653 -2.67399,-7.795955 -3.5423,-8.023024 -1.30533,-0.341353 -6.58217,3.456512 -6.58217,4.737348 0,0.69094 0.32638,1.1748 1.0421,1.544911 0.40037,0.20704 0.72794,0.552143 0.72794,0.766893 0,1.270863 -4.67756,6.182926 -7.40242,7.773522 -0.91427,0.533694 -1.82976,1.159532 -2.03442,1.390751 -0.65624,0.741417 -1.16939,2.743943 -1.56027,6.08882 -0.48086,4.114857 -1.04522,5.924231 -2.5451,8.159761 -0.65592,0.977632 -1.48149,2.590203 -1.83459,3.583489 -0.56559,1.590971 -0.64429,2.227432 -0.66103,5.346069 -0.0185,3.445622 10e-4,3.580581 0.73958,5.057275 0.66708,1.334157 0.84756,1.517182 1.49611,1.517182 1.16462,0 1.3399,-0.938026 0.79156,-4.23611 -0.585,-3.518561 -0.23624,-4.0522 2.02957,-3.105478 1.23003,0.513936 1.7814,1.883908 2.12746,5.286048 0.31996,3.145413 0.14991,4.816888 -0.56252,5.529317 -0.62756,0.627557 -1.31813,0.505914 -3.89998,-0.686973 -1.05985,-0.489678 -2.18718,-0.890326 -2.50519,-0.890326 -0.77834,0 -1.40889,0.865871 -2.37389,3.259793 -0.44425,1.102097 -1.20629,2.469437 -1.69342,3.038535 -1.73439,2.026245 -1.86248,1.1631 -0.5791,-3.902168 1.24817,-4.926284 1.38696,-7.142306 0.53377,-8.522793 -1.57279,-2.544831 -5.92034,-2.594418 -8.52243,-0.09721 -1.41309,1.356131 -1.5712,2.228508 -1.05661,5.829936 0.51779,3.623853 1.4459,6.777909 2.84596,9.671639 0.87606,1.810694 1.59758,2.830819 3.2668,4.618771 2.4962,2.673761 2.79635,3.400135 3.19134,7.723344 0.42965,4.702588 1.26673,6.700898 2.80699,6.700898 0.68639,0 0.75135,-0.065 0.61363,-0.613676 -0.11786,-0.469604 0.002,-0.736734 0.51242,-1.137887 0.36654,-0.28832 0.77613,-0.52422 0.9102,-0.52422 0.66609,0 2.03125,-0.914135 2.38408,-1.596417 0.21889,-0.423299 0.53987,-1.928741 0.71328,-3.345428 0.38141,-3.115888 1.08231,-4.770181 2.83442,-6.689887 2.1074,-2.30898 2.23803,-2.687373 2.15649,-6.246617 l -0.0707,-3.085823 0.99511,-0.267952 c 2.48143,-0.66818 6.57794,-4.398264 7.90045,-7.193756 0.4003,-0.846161 0.72791,-1.666777 0.72802,-1.823593 1.1e-4,-0.156813 0.16327,-0.420454 0.36258,-0.585865 0.29163,-0.242034 0.44214,-0.179023 0.77092,0.322763 0.58327,0.890194 1.7509,1.32998 2.55652,0.962913 2.52353,-1.149797 7.60269,1.953018 8.06249,4.9253 0.0728,0.470344 0.19282,1.245311 0.26679,1.722149 0.074,0.47684 0.33141,1.110142 0.57206,1.407341 0.36905,0.455751 0.54434,0.499765 1.11948,0.281096 1.3246,-0.503611 2.1149,-2.990147 2.36228,-7.432445 0.28067,-5.040196 0.87913,-6.236872 4.58137,-9.160834 l 2.3941,-1.890809 1.83678,1.663563 c 2.54482,2.304838 3.92305,4.697422 4.30874,7.47992 0.18238,1.315779 -0.2617,2.324938 -1.07441,2.441566 -0.74941,0.107543 -1.31594,-1.208615 -1.31594,-3.057163 0,-2.16665 -0.57023,-2.377099 -3.53915,-1.30615 -3.22246,1.162407 -4.33543,2.212227 -3.95447,3.730099 0.21548,0.858541 1.17644,1.994886 1.5619,1.84697 0.18095,-0.06944 0.84205,0.213592 1.46912,0.628948 1.38202,0.915413 4.2735,3.953244 4.14103,4.350635 -0.11787,0.353632 -1.03068,0.620477 -2.23618,0.653716 -1.23699,0.03411 -2.12874,0.801945 -2.60262,2.24097 -0.67808,2.059135 -1.41409,6.114374 -1.41409,7.791293 0,1.734223 0.2937,2.130402 1.57931,2.130402 0.72069,0 1.65293,0.809185 1.82879,1.587398 0.0699,0.309068 0.23917,1.713676 0.37628,3.121345 0.1371,1.407673 0.36581,2.865885 0.50823,3.240474 0.3892,1.023694 0.32053,2.157571 -0.14141,2.334836 -0.72652,0.27879 -1.38611,-0.723555 -1.53969,-2.339774 -0.2336,-2.458217 -0.9663,-3.105612 -2.57397,-2.274259 -0.76377,0.394963 -2.58958,2.27899 -3.05951,3.157062 -0.16353,0.30555 -0.30383,1.02694 -0.31178,1.603088 -0.0122,0.886348 0.12385,1.174288 0.88433,1.871214 1.10958,1.01686 2.72438,1.48794 6.36881,1.85795 3.37541,0.3427 5.1843,1.0555 5.82558,2.29559 0.62713,1.21275 0.76519,3.44878 0.28403,4.60036 -0.70653,1.69097 -1.62629,1.56748 -3.14228,-0.42191 -1.67319,-2.19569 -5.2143,-3.60946 -6.38562,-2.54943 -0.2756,0.24942 -0.5011,0.65665 -0.5011,0.90496 0,0.66653 -1.15882,3.78237 -2.53021,6.8032 -1.30656,2.87803 -1.88453,4.45021 -2.14351,5.83066 -0.13699,0.73024 -0.0546,1.00495 0.47202,1.57315 1.58848,1.714 1.52517,5.32689 -0.12631,7.20787 -0.86592,0.98626 -0.90464,1.61368 -0.20853,3.37971 0.57777,1.46581 0.69484,2.83192 0.38138,4.45027 -0.26152,1.35017 -0.0474,1.36254 1.56218,0.0902 1.79708,-1.42051 2.21317,-2.43204 2.09144,-5.08431 -0.25602,-5.57828 0.10167,-7.46614 1.67655,-8.84891 1.0061,-0.88336 1.57918,-0.84895 2.61795,0.15721 l 0.63216,0.61231 -0.77276,-0.15436 c -1.59461,-0.31851 -1.75931,1.25914 -0.2433,2.33045 0.36326,0.2567 0.89766,0.64487 1.18756,0.86261 l 0.52709,0.39588 -0.75778,0.86843 c -1.07055,1.2269 -1.74698,2.66791 -2.06833,4.40624 -0.33513,1.81289 -1.22359,3.32469 -3.70541,6.30511 -1.24052,1.48974 -1.88277,2.47828 -1.88928,2.90793 -0.007,0.47217 -0.31965,0.87884 -1.13789,1.48076 -1.26346,0.92946 -1.41832,1.31953 -0.52387,1.31953 0.33227,0 0.86719,0.213 1.1887,0.47334 0.57614,0.46653 0.57986,0.50228 0.25844,2.48151 -0.42281,2.60354 -0.13257,3.77938 1.26845,5.13903 0.99112,0.96185 1.88902,1.44774 2.16512,1.17164 0.0751,-0.0751 0.01,-0.50077 -0.14549,-0.94585 -0.68376,-1.96143 -0.29883,-2.42747 2.77114,-3.35507 2.57398,-0.77773 3.76312,-1.76403 4.38532,-3.63729 0.57846,-1.74159 1.10802,-2.44285 1.56089,-2.067 0.45665,0.37899 0.44842,1.3037 -0.0255,2.866 -0.20711,0.68271 -0.37656,1.52953 -0.37656,1.88182 0,0.35229 -0.5595,1.50054 -1.24333,2.55167 -0.68383,1.05112 -1.47966,2.68894 -1.7685,3.6396 -0.64271,2.11531 -1.17277,7.29859 -0.81209,7.94108 0.28404,0.50596 0.31667,0.44839 0.78682,-1.38826 0.1513,-0.59107 0.41378,-1.07467 0.58329,-1.07467 0.1695,0 1.02812,0.62787 1.90804,1.39528 1.90693,1.66308 2.70239,2.10349 4.16023,2.30331 0.93784,0.12855 2.9869,-0.12971 4.5404,-0.57225 0.65061,-0.18534 0.54696,0.20771 -0.44251,1.67807 -1.34219,1.99448 -1.13056,4.16081 0.46956,4.80654 0.81721,0.32978 1.04812,0.29614 1.74845,-0.25474 z m 42.7715,-77.354196 c 0.62365,-0.68913 0.42896,-1.815805 -0.39314,-2.275117 -0.59672,-0.333388 -0.73524,-0.327016 -1.32754,0.06107 -0.43759,0.286724 -0.66129,0.65982 -0.66129,1.102933 0,1.395699 1.49381,2.092516 2.38197,1.111114 z M 578.9144,88.396482 c 0.38872,-0.593266 0.39483,-0.729835 0.0593,-1.327534 -0.29029,-0.517172 -0.56763,-0.666238 -1.23958,-0.666238 -0.67196,0 -0.9493,0.149066 -1.23958,0.666238 -0.33548,0.597699 -0.32938,0.734268 0.0593,1.327534 0.3054,0.466114 0.65375,0.661297 1.18023,0.661297 0.52647,0 0.87482,-0.195183 1.18023,-0.661297 z m 125.4571,-0.422535 c 0.0614,-0.744363 -0.17584,-1.436496 -1.06636,-3.110497 -1.35245,-2.542358 -3.63354,-5.840698 -5.09206,-7.362902 -0.9411,-0.982181 -1.1558,-1.085956 -2.24676,-1.085956 -1.50236,0 -2.88393,0.628245 -3.07749,1.399431 -0.26894,1.071556 0.74378,2.493998 4.31666,6.063086 5.15901,5.153538 6.99228,6.201623 7.16601,4.096838 z M 616.01507,67.419611 c 0.36249,-0.944658 -1.02683,-2.36951 -2.31897,-2.378264 -1.05373,-0.0071 -1.30241,0.568265 -0.63448,1.468086 0.89031,1.199396 2.63602,1.737381 2.95345,0.910178 z m -8.2664,-6.556454 c 1.224,-0.857329 0.93107,-3.085329 -0.58011,-4.412163 -1.07834,-0.946791 -1.96615,-0.996043 -2.52693,-0.140186 -0.7165,1.093517 0.30799,3.917449 1.67149,4.607352 0.79028,0.399861 0.7859,0.400031 1.43555,-0.055 z"
         id="path385" />
      <path
         style="fill:#f8f8f8;fill-opacity:1;stroke-width:0;stroke-dasharray:none"
         d="m 596.81831,176.03231 c -2.30658,-0.30163 -4.67755,-0.96882 -5.83899,-1.64308 -1.53097,-0.88878 -2.76242,-1.1072 -7.80858,-1.38499 -5.40066,-0.2973 -7.23677,-0.59044 -8.59737,-1.37259 -1.17319,-0.67442 -3.64074,-1.33038 -5.88812,-1.56528 -1.83946,-0.19226 -1.82525,-0.15142 -1.07485,-3.09045 0.27308,-1.06955 0.61351,-2.96602 0.75651,-4.21438 0.43963,-3.83772 0.31551,-13.1198 -0.26755,-20.00918 -0.59014,-6.97295 -0.54221,-14.38215 0.11425,-17.6615 0.19488,-0.97353 0.6468,-3.19241 1.00427,-4.93084 1.28914,-6.26934 1.64581,-13.66039 1.20805,-25.033511 C 569.81482,79.249849 568.94679,75.656 565.72314,75.656 c -2.98444,0 -3.96621,3.604664 -3.03309,11.136294 0.91867,7.415066 -0.15255,12.99281 -3.16447,16.477086 -1.41566,1.63766 -4.33011,3.52436 -6.58477,4.26272 -1.64412,0.53841 -2.33414,0.61535 -5.42386,0.60478 -3.14683,-0.0108 -3.76482,-0.0873 -5.563,-0.6889 -3.8834,-1.29926 -7.43205,-3.97171 -8.51013,-6.40888 -0.45467,-1.02785 -0.50559,-1.484056 -0.36249,-3.24769 0.19744,-2.433351 -0.1646,-4.436037 -0.97154,-5.374156 -0.80204,-0.932433 -1.15542,-0.563285 -1.15542,1.206997 0,0.826242 -0.0987,1.502258 -0.21926,1.502258 -0.12059,0 -0.51837,-0.451981 -0.88394,-1.004402 -0.83616,-1.26352 -1.8482,-1.793887 -3.31704,-1.738327 -1.46541,0.05543 -2.12343,-0.52931 -3.31021,-2.941547 -1.69318,-3.441531 -2.63429,-8.020636 -2.63594,-12.825548 -0.002,-6.511527 1.12803,-8.519255 9.85482,-17.505345 10.75376,-11.073293 12.1433,-12.703382 12.1433,-14.245451 0,-1.068483 -0.9254,-2.399657 -2.08508,-2.999351 -0.65411,-0.338256 -1.22189,-0.378871 -3.21094,-0.229689 -3.9964,0.299737 -4.63643,0.29049 -4.75824,-0.06875 -0.38403,-1.132546 6.69275,-5.78971 17.00802,-11.192829 5.00692,-2.622612 6.21906,-3.592 7.26929,-5.813489 1.45105,-3.069279 1.76979,-5.841156 1.05037,-9.134042 -0.48787,-2.232993 -0.54717,-7.4683561 -0.11118,-9.8150018 0.9312,-5.01200202 2.99451,-5.96526973 4.10862,-1.8982216 0.26342,0.9616198 1.16618,3.2329154 2.00614,5.0473235 1.49298,3.2250599 2.82049,6.6526459 3.1127,8.0369209 0.18766,0.888983 0.96516,1.387333 2.66838,1.710342 1.64864,0.312658 2.46258,1.015948 2.84933,2.46198 0.58037,2.169929 0.94197,0.880557 0.94197,-3.358808 0,-1.570916 0.12195,-4.600539 0.27099,-6.732498 0.51577,-7.3776177 1.51514,-9.93603842 3.39902,-8.701669 0.85328,0.5590906 1.08557,1.089578 1.52708,3.4874322 0.95076,5.1636598 1.86746,7.0517088 6.51468,13.4177328 1.46224,2.003044 3.63613,5.144407 4.83088,6.980806 4.73132,7.27229 19.2705,26.80605 23.0784,31.006433 6.75852,7.455106 15.36336,14.715471 19.58116,16.521675 4.56548,1.955089 14.70328,2.911149 31.07015,2.930112 17.71778,0.02053 25.07793,-0.800896 27.02268,-3.015846 1.44694,-1.647971 1.67857,-3.03548 1.66741,-9.987916 -0.0128,-7.953791 -0.33094,-10.207667 -3.23051,-22.884169 -1.26785,-5.542849 -1.78081,-9.362088 -1.8,-13.401779 -0.0139,-2.916421 0.0646,-3.718284 0.4454,-4.551547 l 0.46222,-1.011455 0.8456,0.967568 c 1.81999,2.082478 6.47974,10.441996 9.9615,17.870781 1.42107,3.032026 2.0583,4.839329 2.92174,8.286545 0.21844,0.872112 0.85402,2.600261 1.41239,3.84033 1.81905,4.03985 2.58099,8.120267 3.02393,16.193865 0.14879,2.711964 0.38323,6.295943 0.521,7.964399 0.23368,2.830089 0.30779,3.118415 1.10487,4.298684 0.94608,1.40089 4.35939,5.316458 8.62889,9.898617 6.14745,6.597627 8.85908,10.522645 13.55186,19.616005 1.77408,3.43769 3.65812,6.89402 4.18675,7.68072 1.51794,2.25898 1.84526,2.94931 1.84719,3.89583 0.003,1.32955 0.44059,2.6474 1.10288,3.31923 0.96228,0.97612 1.17976,1.60895 1.56772,4.56176 0.41711,3.17465 0.91503,4.50536 2.23073,5.96168 1.04808,1.16009 1.11803,1.707 0.39871,3.117 -0.91432,1.79221 -1.04156,3.22236 -1.24696,14.01614 -0.24379,12.81134 -0.40466,13.77632 -2.72483,16.34446 -1.57949,1.74831 -2.71773,2.14254 -9.48428,3.28485 -12.59078,2.12556 -14.67833,1.71571 -20.77844,-4.07944 -3.03385,-2.88218 -4.24043,-3.79171 -5.03007,-3.79171 -0.69071,0 -1.76364,-1.11444 -2.3505,-2.44142 -0.73545,-1.66299 -1.4152,-2.36299 -2.29462,-2.36299 -1.02807,0 -1.80091,0.92001 -2.36557,2.81603 -0.39435,1.32414 -0.71337,1.87833 -1.41345,2.4554 -1.51741,1.25077 -5.52358,2.06288 -10.16308,2.06021 -2.83503,-0.002 -4.21562,-0.3119 -5.1022,-1.14662 -0.81548,-0.7678 -2.28951,-1.37912 -3.34232,-1.38616 -1.22498,-0.008 -2.73277,-0.78752 -4.3404,-2.2434 -0.78415,-0.71013 -1.57288,-1.29114 -1.75274,-1.29114 -0.17986,0 -0.71915,0.4126 -1.19843,0.91688 -0.47927,0.50429 -1.33539,1.12677 -1.90248,1.3833 -1.37855,0.6236 -4.92214,1.15791 -9.84207,1.48401 -2.2252,0.1475 -6.60709,0.43633 -9.73754,0.64186 -5.0732,0.33307 -6.02122,0.46787 -8.7238,1.24043 -1.66764,0.47671 -3.60102,1.11092 -4.2964,1.40935 -1.30972,0.56208 -2.65506,1.65502 -2.65506,2.15693 0,0.48955 -1.07326,1.32802 -2.58692,2.021 -2.93501,1.34369 -10.11538,2.78378 -17.01003,3.41153 -3.19706,0.29108 -12.1661,0.285 -14.4203,-0.01 z m 4.47524,-7.30205 c 0.33935,-0.26693 1.34308,-1.93304 2.23053,-3.70248 1.22976,-2.45196 1.97936,-3.59954 3.15158,-4.82482 2.16847,-2.26663 2.8325,-2.07383 2.07145,0.60146 -0.22312,0.78431 -0.34719,1.48451 -0.2757,1.556 0.0715,0.0715 0.98536,-0.75362 2.03084,-1.83355 2.609,-2.695 2.97795,-2.5828 2.50127,0.76063 -0.27296,1.91448 -0.0828,1.97655 5.82101,1.89993 4.96067,-0.0644 6.72444,-0.23767 6.87022,-0.675 0.0464,-0.13931 -0.55972,-0.99188 -1.34701,-1.8946 -1.73699,-1.99167 -2.34953,-3.26787 -2.35686,-4.91043 l -0.006,-1.24429 0.94824,1.35263 c 1.15612,1.64915 2.58075,2.43038 4.86763,2.66929 2.27348,0.2375 2.36094,0.34119 2.15367,2.55306 -0.28477,3.03897 0.15807,3.51889 1.84268,1.99694 2.90196,-2.62174 3.9204,-8.38804 2.11153,-11.95521 -0.81873,-1.61458 -1.05069,-3.10789 -0.48166,-3.10092 0.47126,0.006 0.77275,0.27053 1.57934,1.38688 1.33103,1.84222 1.95796,2.03849 3.53648,1.10713 1.18717,-0.70044 2.32867,-0.52492 5.21157,0.80134 2.26968,1.04415 3.26877,1.22383 3.72802,0.67046 0.15017,-0.18094 0.60146,-1.09885 1.00287,-2.03978 0.4014,-0.94093 0.83296,-1.72145 0.95902,-1.73448 0.12605,-0.013 0.76836,0.99021 1.42734,2.22943 1.37148,2.57909 2.48933,3.74671 3.96822,4.14494 0.8259,0.22239 1.12356,0.46789 1.47476,1.21632 0.56868,1.21188 1.07253,1.2649 4.28418,0.45079 4.90145,-1.24246 9.50679,-1.40659 14.23104,-0.50718 2.51444,0.4787 4.61746,1.18763 7.92826,2.67262 2.81507,1.26264 3.87575,1.49014 4.10934,0.88141 0.0734,-0.19139 -0.0439,-1.03278 -0.2608,-1.86976 -0.21688,-0.83698 -0.39433,-1.77383 -0.39433,-2.08189 0,-0.50646 0.0908,-0.54513 0.94824,-0.40373 5.32415,0.87803 6.10838,0.22029 6.63272,-5.5629 0.26759,-2.95135 0.76597,-4.39701 1.82223,-5.2858 1.36812,-1.1512 2.81168,-0.69205 3.77774,1.20159 0.46048,0.90261 0.5084,1.29959 0.36095,2.98997 -0.12688,1.45449 -0.0762,2.17371 0.19966,2.83395 0.81421,1.9487 3.88222,4.48073 5.42919,4.48073 1.14861,0 1.5296,-0.76217 1.79775,-3.59645 0.3103,-3.27984 0.99467,-4.58467 2.91994,-5.56727 1.48606,-0.75843 2.40543,-0.97075 2.94743,-0.68068 0.67475,0.36112 0.58913,1.14486 -0.33003,3.02085 -1.11644,2.27865 -1.18678,3.65811 -0.33645,6.59816 1.05895,3.66134 1.08094,4.73021 0.15492,7.52871 -0.91961,2.77911 -0.95941,3.33365 -0.28321,3.94561 0.75405,0.6824 2.50386,0.36869 5.53032,-0.99152 1.41262,-0.63487 2.78137,-1.15431 3.04168,-1.15431 0.26032,0 0.63851,0.24881 0.84043,0.55293 l 0.36714,0.55293 0.91995,-0.56856 c 1.36129,-0.84133 3.77668,-3.59318 4.74013,-5.40044 0.81014,-1.51969 0.8507,-1.72878 0.98586,-5.0826 0.1576,-3.91072 0.20896,-4.01935 2.0384,-4.31189 1.31753,-0.21068 1.88678,-1.03891 1.69529,-2.46657 -0.30027,-2.23866 -2.66842,-3.98488 -5.69809,-4.20165 -2.20158,-0.15753 -3.45607,0.36297 -5.57921,2.31483 -0.84731,0.77895 -1.70961,1.41628 -1.91623,1.41628 -1.15231,0 -1.73016,-3.36306 -1.04282,-6.06917 0.5291,-2.08311 1.52158,-3.70387 2.83211,-4.62494 1.40716,-0.98899 2.64619,-1.10846 4.75156,-0.45818 2.71741,0.83932 5.38222,0.61487 5.98089,-0.50375 0.31193,-0.58283 -0.0758,-1.39998 -1.71112,-3.60626 -1.36303,-1.83891 -2.85174,-4.81793 -2.8576,-5.71826 -0.007,-1.08776 -1.05842,-2.57026 -2.86422,-4.03881 -0.95177,-0.77403 -1.90129,-1.73331 -2.11005,-2.13174 -0.34023,-0.64934 -0.33808,-0.76589 0.0207,-1.12466 0.34683,-0.34683 0.59672,-0.35966 1.87241,-0.0962 2.32983,0.48122 2.83248,0.42096 2.83248,-0.33958 0,-1.53813 -2.0685,-2.39071 -5.8003,-2.39071 -2.73063,0 -3.18147,-0.36635 -3.16277,-2.57004 0.0163,-1.9196 0.68878,-3.39364 2.00698,-4.39908 0.48805,-0.37225 0.88736,-0.8791 0.88736,-1.12634 0,-1.30327 -6.78906,-5.28388 -9.03988,-5.30032 -0.70736,-0.005 -0.82181,0.0811 -0.82181,0.61967 0,0.43522 0.22412,0.74156 0.73627,1.0064 2.31356,1.19639 2.37613,3.87569 0.10047,4.30261 -1.23608,0.23188 -2.3014,0.78005 -3.23894,1.66659 -1.15822,1.09522 -3.05006,1.82136 -5.08924,1.95338 -1.58912,0.10289 -1.86546,0.0532 -2.33899,-0.4203 -0.99863,-0.99863 -0.54609,-4.32994 0.58819,-4.32994 0.54994,0 0.67386,-0.72654 0.49658,-2.91139 -0.20239,-2.49435 -0.0873,-2.75193 1.92002,-4.29652 1.12722,-0.867366 1.51551,-1.325926 1.51551,-1.789785 0,-0.93884 -0.95139,-1.198895 -3.1608,-0.863985 -2.43199,0.368648 -3.09594,0.115375 -3.3167,-1.265211 -0.21726,-1.358682 -0.90003,-2.179506 -1.98174,-2.382434 -1.14915,-0.215582 -1.65531,-0.975594 -1.65531,-2.485469 0,-0.668898 -0.15433,-1.585531 -0.34295,-2.036966 -0.94782,-2.268446 -7.69529,-6.356853 -11.03858,-6.688459 -1.58641,-0.157352 -2.22168,0.401277 -2.50341,2.201391 -0.37777,2.413764 -2.11361,2.994633 -3.6329,1.215691 -2.12659,-2.490028 -3.3887,-3.237364 -4.84853,-2.870972 -1.54405,0.387534 -1.09942,1.466256 2.12349,5.151889 2.39838,2.742719 3.301,4.037278 3.301,4.734373 0,0.379652 -0.15287,0.420538 -1.04127,0.278479 -1.18579,-0.189618 -3.7285,-1.389259 -5.0005,-2.359227 -0.47194,-0.359878 -1.03064,-1.09364 -1.24156,-1.630586 -0.59634,-1.518139 -0.80388,-1.506826 -7.2214,0.393698 -4.55364,1.348543 -6.23009,0.702792 -6.23009,-2.399765 0,-1.311455 -0.6043,-2.451259 -1.40632,-2.652554 -1.28298,-0.322006 -4.35919,1.34235 -6.74854,3.651247 -0.66061,0.638359 -1.2011,1.353949 -1.2011,1.590194 0,1.125583 2.5259,2.32086 5.76286,2.72703 1.0139,0.127223 2.11803,0.411217 2.4536,0.631092 1.18295,0.775098 1.05515,3.189896 -0.21593,4.080199 -1.34079,0.939123 -4.12898,-0.01636 -5.22563,-1.790794 -0.30598,-0.495094 -0.83217,-1.080904 -1.1693,-1.301798 -0.57422,-0.376246 -0.65008,-0.366753 -1.20035,0.150201 -1.42923,1.342694 -6.70896,2.489677 -12.56059,2.728691 -4.71409,0.192551 -5.47272,0.05937 -5.93269,-1.041488 -0.47326,-1.13266 -0.0964,-2.426296 1.03694,-3.559649 1.07818,-1.07818 1.76615,-1.439783 4.0286,-2.117463 2.49097,-0.746128 3.41367,-1.359557 3.41367,-2.26948 0,-1.058111 -0.76319,-1.869194 -2.70758,-2.877488 -2.86006,-1.483137 -8.14112,-2.976197 -10.52703,-2.976197 -1.21369,0 -1.53248,0.113382 -2.48651,0.884371 -3.09057,2.497624 -4.54075,3.475489 -6.1516,4.148066 -2.92457,1.221096 -5.43657,1.353106 -5.43657,0.2857 0,-0.273892 1.24843,-1.816712 2.84472,-3.515529 3.90684,-4.157775 5.12436,-6.310268 4.64641,-8.214547 -0.12536,-0.499492 -0.37043,-0.658379 -1.23196,-0.798736 -0.5915,-0.09637 -2.03074,-0.39909 -3.19829,-0.672719 -1.16756,-0.273631 -2.38321,-0.432159 -2.70144,-0.352289 -0.70916,0.177985 -0.86004,0.62561 -1.10063,3.265282 -0.19168,2.102995 -0.56237,3.200355 -1.0811,3.200355 -0.88445,0 -4.3045,-4.778606 -4.64751,-6.493657 -0.14865,-0.743291 -0.0907,-0.822038 0.94315,-1.28141 2.44925,-1.088285 3.54238,-2.645177 3.03837,-4.327414 -0.42032,-1.402906 -1.26015,-2.061153 -2.91651,-2.285929 -1.97831,-0.26846 -2.30832,-0.6625 -2.95424,-3.527406 -0.76695,-3.401779 -1.09809,-4.139989 -1.81148,-4.038391 -0.43476,0.06192 -0.80683,0.563787 -1.54881,2.089092 -0.68457,1.407308 -1.0355,1.898766 -1.17362,1.643614 -0.10837,-0.200192 -0.43736,-1.800251 -0.73107,-3.555684 -1.22323,-7.310824 -4.83599,-16.511598 -7.86476,-20.029555 -1.28214,-1.489213 -1.36977,-1.68535 -1.63904,-3.668724 -0.32158,-2.368653 -2.24503,-4.689988 -3.76389,-4.542505 -0.6981,0.06779 -0.80684,0.181037 -0.87719,0.913586 -0.0519,0.53988 0.19457,1.423616 0.69537,2.493811 0.42663,0.911682 0.77569,1.991846 0.77569,2.400362 0,1.593871 -1.33279,2.98003 -2.46323,2.561864 -0.24459,-0.09048 -0.94539,-0.542992 -1.55734,-1.005586 -1.43607,-1.085577 -2.69714,-1.456139 -4.19237,-1.231917 -0.95391,0.143048 -1.41186,0.406858 -2.36415,1.361881 -0.64959,0.651456 -1.5041,1.616925 -1.89892,2.145486 -1.54751,2.071766 -2.59857,0.619602 -2.95556,-4.083459 -0.35077,-4.621087 -1.29043,-8.448281 -2.83513,-11.54738 -1.15513,-2.317522 -1.85232,-2.421891 -4.52181,-0.67692 -3.55034,2.32075 -4.38121,4.001692 -2.46722,4.991451 0.4163,0.215281 0.72794,0.583071 0.72794,0.859105 0,1.308456 -4.88388,6.274541 -7.77572,7.906594 -2.1935,1.237933 -2.62187,2.209018 -3.22388,7.308291 -0.44327,3.754728 -1.10025,6.064613 -2.12872,7.484378 -0.93657,1.292892 -1.83646,3.082378 -2.45049,4.872957 -0.37494,1.093355 -0.47704,2.12072 -0.47748,4.804411 -5.3e-4,3.226914 0.0382,3.492481 0.70697,4.854443 0.83107,1.692377 1.54902,2.081511 2.24793,1.218396 0.56457,-0.697218 0.56974,-1.247063 0.0396,-4.214988 -0.55694,-3.11807 -0.1343,-3.67693 2.08077,-2.751413 1.23002,0.513936 1.78139,1.883908 2.12746,5.286048 0.31647,3.111226 0.15032,4.816468 -0.53618,5.502976 -0.65608,0.65607 -0.97431,0.609199 -3.66292,-0.539503 -1.30206,-0.5563 -2.59439,-1.011455 -2.87185,-1.011455 -0.62556,0 -1.51273,1.318166 -2.40732,3.576819 -0.62132,1.568703 -2.16958,3.75623 -2.65854,3.75623 -0.54368,0 -0.44453,-1.177023 0.36376,-4.318392 1.52765,-5.937117 1.58745,-8.203489 0.25389,-9.621582 -0.91567,-0.973715 -2.06606,-1.484715 -3.34247,-1.484715 -2.49603,0 -5.28243,1.633672 -5.88128,3.448207 -0.54891,1.663224 0.35448,7.341591 1.79812,11.302208 1.08568,2.978566 2.31294,4.976819 4.51916,7.358196 2.33148,2.516586 2.68184,3.347256 3.04794,7.226194 0.48748,5.165139 1.15994,6.878293 2.76053,7.03277 0.78366,0.0756 0.83443,0.0365 0.69139,-0.533454 -0.18735,-0.746461 0.18661,-1.102334 2.13511,-2.031843 1.73121,-0.825853 1.95802,-1.267743 2.37424,-4.625594 0.38217,-3.083135 1.07641,-4.70938 2.88277,-6.752858 2.09121,-2.365717 2.1781,-2.619845 2.10849,-6.166745 l -0.0606,-3.086994 0.95525,-0.25722 c 2.9887,-0.804774 7.52509,-5.318236 8.45085,-8.408127 0.43201,-1.441943 0.77067,-1.597522 1.55681,-0.715215 0.78108,0.876638 1.68231,1.170256 2.40493,0.783524 2.29481,-1.228144 7.54715,2.014838 7.99953,4.939195 0.0728,0.470344 0.19553,1.259777 0.27282,1.754298 0.19803,1.266923 0.93457,1.957742 1.71043,1.604238 1.28983,-0.587688 2.10166,-3.120612 2.33155,-7.274475 0.28525,-5.154355 0.86622,-6.328007 4.58718,-9.266751 l 2.3941,-1.890809 1.76491,1.579526 c 1.89829,1.69889 3.02613,3.252629 3.75668,5.175274 1.00461,2.643915 0.81768,4.64826 -0.45048,4.830246 -0.72249,0.103679 -1.31594,-1.191286 -1.31594,-2.871495 0,-2.209933 -0.5781,-2.523692 -3.07016,-1.666297 -2.97281,1.022794 -4.51575,2.198709 -4.51575,3.441552 0,0.821296 1.06613,2.274348 1.69238,2.306588 0.29404,0.01515 0.93179,0.272989 1.41723,0.573004 1.15488,0.713754 4.27989,4.03259 4.15579,4.41354 -0.0531,0.162841 -0.65692,0.388373 -1.34194,0.501186 -2.18271,0.359461 -2.47991,0.517174 -3.10295,1.646621 -0.72802,1.319756 -1.80276,6.41861 -1.8064,8.57 -0.003,1.696255 0.29723,2.095021 1.57665,2.095021 0.72149,0 1.65389,0.810184 1.82686,1.587398 0.0688,0.309068 0.24773,1.738992 0.39767,3.177605 0.14993,1.438615 0.3795,2.896827 0.51016,3.240474 0.37001,0.973202 0.28913,2.105152 -0.1628,2.278576 -0.72316,0.2775 -1.3396,-0.696653 -1.59832,-2.525768 -0.13412,-0.948259 -0.37906,-1.887016 -0.54431,-2.086126 -0.64736,-0.780026 -2.07424,-0.248054 -3.55121,1.32397 -1.44008,1.532753 -1.74459,2.126437 -1.74459,3.401353 0,2.222958 1.91978,3.225088 7.20662,3.761848 4.80672,0.48802 6.14237,1.46659 6.3708,4.66759 0.20552,2.88013 -1.24262,4.32695 -2.65267,2.65023 -1.32015,-1.56982 -2.3912,-2.53465 -3.36538,-3.03164 -1.31129,-0.66897 -3.01016,-0.88333 -3.55654,-0.44876 -0.23225,0.18473 -0.76214,1.35997 -1.17752,2.61164 -0.41539,1.25168 -1.43215,3.81192 -2.25949,5.68944 -1.30316,2.95732 -2.083,5.21013 -2.083,6.01734 0,0.12672 0.27916,0.53162 0.62035,0.89977 1.57113,1.69528 1.49859,5.31805 -0.14395,7.18884 -0.87066,0.99165 -0.89184,1.35268 -0.19708,3.36024 0.58687,1.69581 0.68187,2.84668 0.36896,4.46974 -0.25544,1.32495 -0.0671,1.3477 1.46596,0.1771 1.97661,-1.50926 2.2133,-2.25707 2.13933,-6.75924 -0.0751,-4.57325 0.1706,-5.67708 1.57695,-7.08344 1.09799,-1.09799 1.64995,-1.10202 2.76685,-0.0202 l 0.63216,0.61231 -0.77276,-0.15435 c -1.59461,-0.31852 -1.75931,1.25913 -0.2433,2.33044 1.85507,1.31091 1.77905,1.11796 0.88322,2.24164 -1.14634,1.43792 -1.67831,2.58011 -1.99202,4.27712 -0.30636,1.65726 -0.99889,2.97089 -2.6061,4.94341 -2.08494,2.55883 -2.98146,3.87908 -2.99125,4.40501 -0.006,0.32818 -0.43935,0.84592 -1.13789,1.35979 -1.26346,0.92945 -1.41832,1.31952 -0.52387,1.31952 0.33227,0 0.86635,0.21232 1.18682,0.47183 0.5727,0.46374 0.57731,0.50694 0.26902,2.52079 -0.42058,2.74744 -0.16036,3.66652 1.46984,5.19139 1.38319,1.2938 2.20237,1.55023 1.92639,0.60301 -0.70365,-2.41508 -0.41938,-2.93967 1.95215,-3.6025 3.11245,-0.86991 4.35477,-1.87132 5.22682,-4.21324 0.63507,-1.70552 1.06364,-2.15956 1.5197,-1.61004 0.32495,0.39154 0.28988,0.90832 -0.24071,3.54669 -0.3344,1.66282 -0.50606,2.05568 -1.87833,4.29869 -0.51052,0.83445 -1.15023,2.23571 -1.42158,3.11392 -0.60632,1.96233 -1.10171,6.83245 -0.78002,7.66828 0.25669,0.66693 0.3227,0.56273 0.78329,-1.2366 0.1513,-0.59107 0.41294,-1.07317 0.58143,-1.07134 0.16848,0.002 1.10285,0.68489 2.07638,1.51793 2.40793,2.06043 3.73477,2.48631 6.36773,2.0439 1.06132,-0.17833 2.0825,-0.38289 2.2693,-0.45457 0.55307,-0.21223 0.39159,0.34101 -0.44667,1.53025 -1.39282,1.97602 -1.22296,4.32853 0.35853,4.96556 0.8265,0.33292 1.05859,0.30215 1.73515,-0.23003 z m 42.63466,-77.284613 c 0.70165,-0.491458 0.72728,-1.463985 0.0563,-2.135004 -0.60862,-0.608623 -0.97104,-0.632329 -1.71378,-0.112095 -0.67178,0.470532 -0.7408,1.518306 -0.14351,2.17831 0.51224,0.566021 1.06119,0.586988 1.80103,0.06879 z m -65.02612,-3.030384 c 0.80047,-1.221671 -0.57255,-2.610743 -1.88584,-1.90789 -0.73262,0.392088 -0.91448,1.199014 -0.43511,1.930627 0.56244,0.858397 1.75124,0.846747 2.32095,-0.02273 z m 125.21338,0.33908 c 0.8225,-0.822503 -0.0596,-3.045479 -2.91345,-7.342375 -0.8994,-1.354158 -2.17082,-3.032542 -2.82538,-3.72974 -1.11818,-1.191011 -1.26577,-1.267578 -2.44155,-1.266691 -1.33131,0.001 -2.78289,0.676861 -3.07203,1.430332 -0.3021,0.787276 1.05098,2.698182 4.09003,5.776169 2.90283,2.940027 5.91382,5.435741 6.55804,5.435741 0.1655,0 0.43745,-0.136546 0.60434,-0.303436 z M 615.89311,67.466229 c 0.4133,-0.497995 -0.1379,-1.611619 -1.02464,-2.070175 -2.19252,-1.133796 -3.01445,0.63597 -0.89543,1.928028 0.95282,0.580977 1.52096,0.623038 1.92007,0.142147 z m -8.14444,-6.603072 c 1.224,-0.857329 0.93107,-3.085329 -0.58011,-4.412163 -1.07388,-0.942871 -1.96634,-0.995745 -2.52092,-0.149347 -0.69913,1.067007 0.27053,3.823973 1.5983,4.544354 0.87146,0.472804 0.8525,0.472587 1.50273,0.01714 z"
         id="path387" />
    </g>
    <text
       xml:space="preserve"
       style="fill:#4f5961;stroke:#280b0b;stroke-width:0"
       x="65.805099"
       y="88.477898"
       id="text792"><tspan
         sodipodi:role="line"
         id="tspan790"
         x="65.805099"
         y="88.477898" /></text>
  </g>
</svg>
